<svg width="70" height="70" viewBox="0 0 70 70" fill="none" xmlns="http://www.w3.org/2000/svg">
<g clip-path="url(#clip0_300_552)">
<path d="M45.1232 8.14114C45.7687 8.63387 46.3934 9.11589 47.0389 9.56577C47.1743 9.66218 47.3825 9.66218 47.5595 9.66218C52.0572 9.67289 56.5446 9.66218 61.0423 9.67289C62.3854 9.67289 63.6035 10.8833 63.614 12.3294C63.6452 15.8427 63.6348 19.3561 63.614 22.8802C63.614 23.2016 63.6868 23.4479 63.9367 23.6515C64.9258 24.4762 65.9565 25.2582 66.8727 26.1687C67.5391 26.8221 68.1429 27.5933 68.601 28.4181C69.3611 29.7677 69.8712 31.2459 69.8816 32.8527C69.8816 33.3133 69.9753 33.7846 69.9753 34.2559C69.9753 42.5895 69.9962 50.923 69.9545 59.2673C69.9545 61.0669 69.6422 62.8557 68.8301 64.5053C67.7369 66.7119 66.0711 68.2543 63.8014 69.1327C62.3646 69.6897 60.8862 69.9789 59.3557 69.9789C42.8015 69.9789 26.2473 70.0003 9.69304 69.9467C7.46499 69.936 5.39311 69.1434 3.60234 67.6438C1.79075 66.1227 0.832898 64.1304 0.34356 61.8595C0.12492 60.8526 0.0312166 59.8136 0.0208052 58.7853C-1.7737e-05 50.441 -1.7737e-05 42.1074 0.0208052 33.7739C0.0312166 32.1778 0.41644 30.6461 1.05154 29.1786C1.55129 28.0218 2.13433 26.9185 3.07136 26.083C3.99798 25.2582 4.94542 24.4655 5.9241 23.7157C6.29891 23.4372 6.36138 23.1159 6.36138 22.7195C6.36138 19.2169 6.36138 15.7142 6.36138 12.2222C6.36138 10.8833 7.54829 9.67289 8.82889 9.67289C13.1392 9.67289 17.4392 9.64075 21.7391 9.69431C22.6761 9.70502 23.3633 9.38368 24.0504 8.79454C25.5497 7.50916 27.101 6.28804 28.6211 5.03479C29.5997 4.22071 30.5576 3.38521 31.5363 2.57114C32.4108 1.83204 33.2958 1.09294 34.1912 0.385982C34.6701 0.000366747 35.2948 0.064636 35.7841 0.460963C37.7311 2.07841 39.6884 3.70656 41.6458 5.31329C42.7806 6.25591 43.9467 7.1771 45.1232 8.14114ZM41.5 43.7356C43.0722 42.5895 44.6339 41.4433 46.206 40.3079C48.4757 38.669 50.7558 37.0409 53.0359 35.402C55.6596 33.5275 58.2729 31.6315 60.9174 29.7785C61.2506 29.5428 61.3338 29.2964 61.3338 28.943C61.3338 23.5443 61.3338 18.1564 61.3338 12.7685C61.3338 12.1687 61.1985 12.0294 60.605 12.0294C43.499 12.0294 26.393 12.0294 9.287 12.0187C8.82889 12.0187 8.64149 12.1687 8.64149 12.6507C8.66231 18.135 8.6519 23.6086 8.66231 29.0929C8.66231 29.3179 8.80807 29.6178 8.98507 29.7463C11.0674 31.2781 13.1601 32.7884 15.2632 34.2987C17.0852 35.6162 18.9176 36.9338 20.75 38.2406C23.2071 39.9865 25.6746 41.7218 28.1213 43.4678C30.3077 45.021 32.4941 46.5849 34.6493 48.1702C34.9616 48.4058 35.1282 48.288 35.3469 48.138C36.2527 47.4953 37.148 46.8526 38.0538 46.21C39.1887 45.4066 40.3131 44.5925 41.5 43.7356ZM49.7251 67.6223C52.9318 67.6223 56.1489 67.6223 59.3557 67.6116C59.7929 67.6116 60.2302 67.5473 60.6675 67.5152C62.2396 67.376 63.5723 66.6583 64.8633 65.7799C65.2069 65.555 65.0507 65.4586 64.8737 65.3193C63.7597 64.441 62.6353 63.5734 61.5004 62.7057C59.6576 61.3025 57.8044 59.91 55.9615 58.5068C54.3998 57.3071 52.8485 56.0753 51.2868 54.8756C49.5689 53.5581 47.8302 52.2513 46.1123 50.9338C44.5402 49.7341 42.9993 48.5022 41.4167 47.324C41.2397 47.1847 40.8129 47.2061 40.6255 47.3347C39.0429 48.4165 37.4812 49.5412 35.9195 50.6552C35.4093 51.0194 34.566 51.0194 34.0871 50.6767C32.4629 49.4984 30.8179 48.3416 29.2145 47.1419C28.8397 46.8527 28.6315 46.9705 28.3504 47.1954C27.9756 47.5061 27.6007 47.8274 27.2155 48.1273C25.5184 49.4234 23.811 50.6981 22.1139 52.0049C20.521 53.226 18.9488 54.4793 17.3663 55.7111C15.5963 57.0822 13.816 58.4425 12.0356 59.8029C10.7134 60.8098 9.3807 61.8167 8.05845 62.8343C7.05895 63.5948 6.06986 64.366 5.08077 65.1372C4.75802 65.3836 4.68514 65.6086 5.13283 65.8014C5.1953 65.8228 5.23694 65.8871 5.289 65.9299C6.61125 67.0011 8.14174 67.6009 9.80757 67.6116C23.0822 67.633 36.3568 67.6223 49.7251 67.6223ZM65.4984 62.8557C65.8316 63.1128 66.1543 63.3806 66.4875 63.6483C66.5187 63.6698 66.6229 63.6483 66.6437 63.6269C67.4141 62.0202 67.6744 60.2956 67.6744 58.5389C67.6952 50.8695 67.6952 43.1893 67.6744 35.5198C67.6744 34.363 67.664 33.1954 67.4454 32.0814C67.258 31.0853 66.7894 30.1534 66.4146 29.2107C66.2897 28.9001 66.0502 28.943 65.8108 29.1143C63.437 30.8496 61.0631 32.5849 58.6789 34.2987C56.3363 35.9911 53.9625 37.6514 51.6096 39.3331C49.5168 40.8328 47.4346 42.3431 45.3523 43.8427C44.738 44.2819 44.0925 44.6782 43.4886 45.1388C43.322 45.2673 42.8535 45.4494 43.3012 45.8029C44.6755 46.8634 46.0602 47.9238 47.4346 48.9842C49.1837 50.3232 50.9432 51.6621 52.6923 52.9904C54.1604 54.1258 55.6388 55.2398 57.1068 56.3752C58.8039 57.682 60.4905 58.9888 62.1876 60.2956C63.2704 61.1418 64.3636 61.9666 65.4984 62.8557ZM2.30091 46.2528C2.33215 50.8909 2.35297 55.5397 2.41544 60.1885C2.43626 61.2383 2.73819 62.2558 3.22753 63.2092C3.37329 63.4877 3.43576 63.4662 3.66481 63.2842C4.79966 62.3737 5.94492 61.4739 7.10059 60.5956C8.52696 59.5137 9.96374 58.464 11.3797 57.3714C13.9409 55.3897 16.5021 53.3867 19.0634 51.3943C21.5829 49.4448 24.0921 47.4953 26.6221 45.578C26.8511 45.3959 26.7782 45.4494 26.6117 45.3316C24.8729 44.0891 23.1446 42.8358 21.4059 41.5933C20.0316 40.6078 18.6573 39.6224 17.283 38.6369C15.0966 37.0516 12.9102 35.4663 10.7134 33.881C9.37029 32.9062 8.03762 31.9208 6.69455 30.946C5.81998 30.3247 4.93501 29.7035 4.05004 29.1036C3.87304 28.9751 3.70646 28.9215 3.53988 29.2107C2.76943 30.5711 2.34256 32.06 2.32174 33.6132C2.26968 37.7907 2.30091 41.9682 2.30091 46.2528ZM26.9761 9.29799C26.8407 9.4051 26.7054 9.52293 26.57 9.63004C26.7678 9.64075 26.9552 9.66218 27.1426 9.67289C27.2884 9.67289 27.4237 9.67289 27.5591 9.67289C32.4212 9.67289 37.273 9.67289 42.1247 9.67289C42.3954 9.67289 42.6557 9.75858 42.916 9.76929C43.0722 9.76929 43.2283 9.69431 43.3845 9.65147C43.2804 9.55506 43.1867 9.43723 43.0722 9.35154C42.9264 9.25514 42.7494 9.19087 42.6036 9.08375C41.9894 8.61245 41.3855 8.14114 40.792 7.64841C39.0742 6.21306 37.3667 4.77771 35.6592 3.33166C34.9825 2.76394 34.9512 2.77466 34.2537 3.40664C33.8893 3.73869 33.504 4.04933 33.1292 4.35996C31.5571 5.65606 29.985 6.96287 28.4024 8.25896C27.9651 8.61245 27.4862 8.91237 26.9761 9.29799ZM63.6244 27.0791C63.5931 27.2612 63.5411 27.4326 63.5307 27.6147C63.5098 27.7325 63.5515 27.8504 63.5619 27.9682C63.666 27.9039 63.7805 27.8504 63.8742 27.7754C64.0096 27.6683 64.1241 27.529 64.2386 27.4112C64.4052 27.2398 64.6551 27.0684 64.2178 26.9078C64.1241 26.8649 64.0825 26.6828 63.9888 26.5971C63.8638 26.4793 63.7077 26.3936 63.5619 26.2865C63.5827 26.4793 63.6035 26.6721 63.6244 26.8649C63.6244 26.897 63.6244 26.9292 63.6244 27.0791ZM6.36138 27.9361C6.36138 27.6897 6.37179 27.4433 6.36138 27.1863C6.35097 26.8863 6.31973 26.5757 6.29891 26.2758C6.09068 26.49 5.88245 26.6935 5.69505 26.9185C5.62217 26.9935 5.53887 27.1648 5.5597 27.197C5.79916 27.4755 6.05945 27.7218 6.36138 27.9361Z" fill="#AD4075"/>
<path d="M24.269 28.4182C21.5517 28.4182 18.8759 28.4182 16.2002 28.4182C15.5026 28.4182 15.0029 27.9469 15.0029 27.2614C15.0029 26.533 15.4714 26.0617 16.2106 26.0617C28.7043 26.0617 41.1876 26.0617 53.6814 26.0617C54.3477 26.0617 54.7121 26.2973 54.9308 26.9186C55.0973 27.4113 54.962 27.8612 54.5455 28.1397C54.3061 28.3111 53.9729 28.4075 53.671 28.4075C47.3616 28.4182 41.0419 28.4182 34.7326 28.4182C31.2655 28.4182 27.7881 28.4182 24.269 28.4182Z" fill="#AD4075"/>
<path d="M29.5789 19.1393C33.4624 19.1393 37.3042 19.1286 41.1356 19.1393C41.6562 19.15 42.1976 19.1928 42.4683 19.8034C42.791 20.5425 42.5516 21.2066 41.8124 21.4851C41.5417 21.5815 41.2189 21.5922 40.9274 21.5922C32.8064 21.6029 24.6855 21.6029 16.575 21.5922C16.273 21.5922 15.9503 21.5922 15.6796 21.4744C15.2319 21.2709 14.982 20.9067 14.9924 20.339C14.9924 19.782 15.2527 19.4499 15.69 19.2571C15.9503 19.1393 16.273 19.1393 16.575 19.1393C20.8853 19.1393 25.2061 19.1393 29.5789 19.1393Z" fill="#AD4075"/>
<path d="M36.1104 33.0471C39.9939 33.0471 43.8357 33.0363 47.6672 33.0471C48.1877 33.0578 48.7291 33.1006 48.9998 33.7112C49.3226 34.4503 49.0831 35.1144 48.3439 35.3929C48.0732 35.4893 47.7504 35.5 47.4589 35.5C39.338 35.5107 31.217 35.5107 23.1065 35.5C22.8046 35.5 22.4818 35.5 22.2111 35.3822C21.7634 35.1787 21.5136 34.8145 21.524 34.2467C21.524 33.6898 21.7843 33.3577 22.2215 33.1649C22.4818 33.0471 22.8046 33.0471 23.1065 33.0471C27.4169 33.0471 31.7376 33.0471 36.1104 33.0471Z" fill="#AD4075"/>
</g>
<defs>
<clipPath id="clip0_300_552">
<rect width="70" height="70" fill="white"/>
</clipPath>
</defs>
</svg>
