<svg width="80" height="76" viewBox="0 0 80 76" fill="none" xmlns="http://www.w3.org/2000/svg">
<g clip-path="url(#clip0_300_543)">
<path d="M74.518 33.0648C74.518 41.8645 74.518 50.5965 74.5062 59.3285C74.5062 59.7351 74.3771 60.1418 74.3067 60.5485C74.248 60.9664 74.2597 61.215 74.7996 61.4635C77.1588 62.4914 78.7315 64.2197 79.3301 66.6936C79.9991 69.4838 79.1893 71.8786 77.1118 73.8554C75.9147 74.9963 74.4593 75.7645 72.7222 75.8774C72.1706 75.9226 71.6189 75.9904 71.0673 75.9904C50.1168 75.9904 29.1664 76.0017 8.22762 75.9791C6.5375 75.9791 5.05864 75.3239 3.70889 74.3412C2.4413 73.4149 1.63145 72.2062 1.11502 70.8054C9.41753e-06 67.7555 1.11502 64.5247 3.59152 62.5366C4.15489 62.0961 4.78869 61.6781 5.46943 61.4522C6.05628 61.2714 5.98586 60.9438 5.95065 60.5711C5.91544 60.0853 5.75112 59.6109 5.75112 59.1364C5.72765 47.1624 5.73938 35.1885 5.73938 23.2145C5.73938 21.6669 6.36144 20.3226 7.28866 19.0913C8.53278 17.4421 10.2816 16.5949 12.2769 16.1317C12.4412 16.0865 12.629 16.1204 12.805 16.1204C23.9904 16.1204 35.1757 16.1204 46.3727 16.1204C47.1708 16.1204 47.1708 16.1204 47.1708 15.3862C47.1708 11.8844 47.1474 8.38252 47.1826 4.8807C47.1943 3.83015 47.3938 2.80219 48.0981 1.92109C48.8375 1.00609 49.7295 0.305725 50.9501 0.215356C52.429 0.102394 53.9431 0.000727512 55.4102 0.11369C57.6637 0.283133 59.1425 1.8646 59.6003 3.81885C59.6355 3.94311 59.612 4.07866 59.612 4.21422C59.612 7.94197 59.612 11.6697 59.612 15.3975C59.612 15.9962 59.7294 16.1204 60.3749 16.1204C62.6167 16.1317 64.8702 16.1204 67.1237 16.1204C68.7551 16.1317 70.1636 16.7304 71.4546 17.6341C73.1447 18.8315 74.0133 20.5034 74.5062 22.4011C74.5414 22.5367 74.518 22.6948 74.518 22.853C74.518 26.2306 74.518 29.6194 74.518 33.0648ZM72.0532 51.76C72.0532 42.4632 72.0415 33.1664 72.0649 23.8696C72.0649 22.6158 71.795 21.4861 70.9851 20.5034C70.011 19.3286 68.7669 18.5491 67.1824 18.5152C64.835 18.4588 62.4876 18.5039 60.1402 18.4926C59.7294 18.4813 59.6003 18.5943 59.6003 18.9897C59.6238 20.4921 59.6238 22.0058 59.6003 23.5082C59.5886 23.9374 59.7411 24.0504 60.1637 24.0391C61.6777 24.0165 63.1801 24.0052 64.6824 24.0391C65.5274 24.073 66.1378 24.57 66.0791 25.3382C66.0204 26.0159 65.5509 26.4 64.6824 26.4C63.2387 26.4 61.7834 26.4113 60.3397 26.4C59.8468 26.4 59.5768 26.5581 59.6003 27.1117C59.6355 28.0267 59.6355 28.9529 59.6003 29.8792C59.5768 30.3311 59.7059 30.4892 60.2106 30.4779C61.7364 30.444 63.2622 30.4666 64.788 30.4779C65.0345 30.4779 65.3045 30.557 65.5157 30.6926C65.9969 31.0089 66.2082 31.472 66.0204 32.0255C65.8678 32.5113 65.3044 32.8388 64.6824 32.8388C63.227 32.8501 61.7482 32.8614 60.2928 32.8275C59.7646 32.8163 59.5886 32.9405 59.6003 33.4714C59.6238 36.3746 59.6003 39.2777 59.612 42.1695C59.6238 42.8473 59.436 43.4347 59.0252 43.9769C57.8984 45.4228 56.8304 46.9139 55.6449 48.326C54.6238 49.5347 52.7224 49.8284 51.5135 48.5632C50.3516 47.3545 49.4126 45.9651 48.3328 44.6999C47.5464 43.7849 47.1474 42.8021 47.1591 41.6047C47.1826 36.7586 47.1591 31.9239 47.1826 27.0891C47.1826 26.4904 46.9478 26.3887 46.4197 26.4C43.7437 26.4113 41.0676 26.4 38.3799 26.4C37.3118 26.4 36.7836 25.5302 37.3118 24.6152C37.5935 24.1182 38.0864 24.0391 38.5911 24.0391C41.2906 24.0278 43.9901 24.0165 46.6896 24.0391C47.1122 24.0504 47.1826 23.9261 47.1826 23.5533C47.1474 22.0284 47.1474 20.5034 47.1826 18.9784C47.1943 18.5265 47.03 18.4926 46.6427 18.4926C35.5865 18.5039 24.5303 18.5039 13.4858 18.4926C12.4529 18.4926 11.5022 18.7186 10.6572 19.2834C9.09615 20.3226 8.20414 21.7121 8.20414 23.5872C8.20414 35.4031 8.20414 47.2302 8.20414 59.0461C8.20414 59.3737 8.23936 59.7013 8.32151 60.0175C8.9201 62.4123 10.9623 64.0051 13.3684 64.0051C31.1499 64.039 48.9314 64.0277 66.7129 64.0164C67.2411 64.0164 67.8044 63.9373 68.3091 63.7792C70.5157 63.1127 72.1119 61.0681 72.0649 58.8202C72.0062 56.5044 72.0532 54.1887 72.0532 51.76ZM44.1779 66.3886C33.8259 66.3886 23.4857 66.3999 13.1454 66.3773C12.5351 66.3773 11.9365 66.2192 11.3379 66.0723C9.82384 65.7109 8.63841 64.8184 7.60556 63.7227C7.35908 63.4629 7.13608 63.4064 6.74876 63.5307C4.10794 64.4005 2.64083 67.2471 3.30983 69.6193C4.02579 72.1384 5.96238 73.6069 8.74404 73.6069C29.7297 73.6295 50.7037 73.6295 71.6894 73.6182C72.2058 73.6182 72.7457 73.5391 73.2269 73.381C76.0555 72.5112 77.5226 69.9356 76.9593 67.2923C76.6893 65.9933 75.9029 64.9088 74.7644 64.1407C73.2973 63.1579 73.2152 63.2031 71.9476 64.4005C70.5743 65.6882 68.896 66.366 66.9946 66.3773C59.4242 66.4112 51.8656 66.3886 44.1779 66.3886ZM52.2177 22.8417C52.2177 19.0462 52.2177 15.2393 52.2177 11.4438C52.2177 10.7773 52.206 10.1221 52.2177 9.46696C52.2177 9.08289 52.1238 8.84567 51.6426 8.89085C51.1966 8.92474 50.7389 8.93604 50.2929 8.89085C49.7412 8.82308 49.6239 9.02641 49.6239 9.54603C49.6356 18.4475 49.6356 27.3489 49.6356 36.2503C49.6356 36.352 49.6004 36.4536 49.6356 36.5327C49.6826 36.6344 49.7765 36.7812 49.8703 36.7812C50.3985 36.849 50.9267 36.8942 51.4548 36.9055C52.0886 36.9168 52.2177 36.7812 52.2177 36.1712C52.2177 31.7657 52.2177 27.3602 52.2177 22.8417ZM54.6825 26.3435C54.6825 29.3257 54.6825 32.2966 54.6825 35.2675C54.6825 36.9846 54.6825 36.9846 56.4783 36.9168C56.9125 36.8942 57.159 36.8038 57.159 36.2729C57.1355 27.7668 57.1473 19.2608 57.1473 10.7547C57.1473 10.1447 57.1121 9.52344 57.1003 8.91345C56.4783 8.90215 55.8562 8.92474 55.2341 8.89085C54.7881 8.85697 54.6708 8.96993 54.6708 9.41048C54.6825 15.0247 54.6825 20.6276 54.6825 26.3435ZM51.5135 44.7564C51.983 45.3664 52.4525 45.9651 52.922 46.5751C53.2623 47.0269 53.591 47.0495 53.9313 46.6089C54.7529 45.5584 55.5393 44.4965 56.3844 43.4686C56.9477 42.7795 57.2764 42.0679 57.159 41.1755C57.0886 40.6784 57.112 40.1588 57.1473 39.6505C57.1825 39.2777 56.9712 39.176 56.666 39.176C54.5182 39.1647 52.3703 39.1647 50.2107 39.176C49.8351 39.176 49.6004 39.3455 49.6239 39.786C49.6591 40.3847 49.6826 40.9947 49.6239 41.5934C49.5534 42.2034 49.8351 42.6779 50.1755 43.1297C50.5746 43.6606 51.0206 44.1803 51.5135 44.7564ZM51.3962 2.50849C50.5511 2.64404 49.976 3.16367 49.7765 3.89792C49.6004 4.54181 49.6943 5.25347 49.6239 5.93124C49.5887 6.3605 49.8586 6.50735 50.1872 6.51865C52.3116 6.52994 54.4478 6.52994 56.5722 6.51865C56.9477 6.51865 57.2177 6.38309 57.159 5.89736C57.1003 5.4568 57.1355 5.00495 57.1473 4.5531C57.1707 3.49126 56.267 2.42942 54.9642 2.45201C53.7905 2.4746 52.6285 2.45201 51.3962 2.50849Z" fill="#AD4075"/>
<path d="M16.3027 42.8917C16.3027 46.8115 16.3379 50.6748 16.2792 54.5268C16.2674 55.6677 17.1947 56.7973 18.6618 56.7973C23.7087 56.7747 28.7556 56.786 33.8025 56.786C42.9338 56.786 52.0652 56.7973 61.2083 56.786C62.2177 56.786 63.0627 56.4471 63.4735 55.4757C63.5557 55.2949 63.5909 55.0916 63.5909 54.8996C63.6026 50.3246 63.6026 45.7496 63.5909 41.1747C63.5909 40.9035 63.4618 40.6324 63.3679 40.3613C63.0979 39.6045 63.1801 38.8702 63.943 38.5539C64.6824 38.2489 65.4453 38.633 65.7036 39.5141C65.8796 40.1467 66.0439 40.8019 66.0439 41.4571C66.0791 45.8626 66.0205 50.2681 66.0791 54.6736C66.1026 56.6053 64.6238 58.4918 62.605 59.034C62.159 59.1469 61.666 59.1582 61.1966 59.1582C47.03 59.1582 32.8753 59.1582 18.7087 59.1582C16.4435 59.1582 14.6477 57.9044 14.0257 56.0066C13.9201 55.6677 13.8379 55.3062 13.8379 54.956C13.8262 50.3133 13.7909 45.6593 13.8496 41.0052C13.8848 39.1074 15.2229 37.5599 17.1595 37.0289C17.535 36.9273 17.9458 36.916 18.3449 36.916C26.0796 36.9047 33.826 36.9047 41.5723 36.9047C42.3939 36.9047 42.8282 37.3001 42.8282 38.0456C42.8282 38.7799 42.3822 39.1639 41.5606 39.1639C33.9668 39.1639 26.3847 39.1639 18.7909 39.1752C17.5468 39.1752 16.6313 39.7174 16.3731 40.768C16.2088 41.4345 16.3144 42.1461 16.3027 42.8917Z" fill="#AD4075"/>
<path d="M32.8518 32.8381C26.9481 32.8381 21.0913 32.8381 15.2463 32.8381C14.3543 32.8381 13.7792 32.3072 13.8379 31.5164C13.8731 31.0307 14.4482 30.4998 14.9529 30.4659C15.0351 30.4659 15.1055 30.4659 15.1877 30.4659C23.9434 30.4659 32.7109 30.4659 41.4667 30.4659C42.2414 30.4659 42.8165 30.9629 42.8282 31.6294C42.8399 32.3184 42.2648 32.8381 41.4667 32.8381C38.6146 32.8494 35.7625 32.8381 32.8518 32.8381Z" fill="#AD4075"/>
<path d="M17.1243 24.027C21.3849 24.027 25.5867 24.0383 29.8003 24.027C30.3519 24.027 30.7979 24.253 31.0796 24.6822C31.3495 25.1002 31.2791 25.5746 30.9505 25.9361C30.7627 26.1507 30.4223 26.388 30.1524 26.388C25.0585 26.4106 19.9764 26.3993 14.8943 26.3993C14.284 26.3993 14.0258 25.9813 13.8497 25.5294C13.6502 25.0437 13.9319 24.5015 14.46 24.2643C14.7417 24.14 15.0586 24.0609 15.3638 24.0383C15.9272 24.0045 16.4905 24.027 17.1243 24.027Z" fill="#AD4075"/>
</g>
<defs>
<clipPath id="clip0_300_543">
<rect width="80" height="76" fill="white"/>
</clipPath>
</defs>
</svg>
