<svg width="75" height="70" viewBox="0 0 75 70" fill="none" xmlns="http://www.w3.org/2000/svg">
<g clip-path="url(#clip0_300_562)">
<path d="M63.6001 18.4256C65.4858 18.5122 67.2711 18.7614 68.9001 19.6171C70.1833 20.2887 71.366 21.0903 72.3033 22.2385C73.2405 23.3759 74.0885 24.5457 74.4456 25.9864C74.6799 26.9613 74.9589 27.9687 74.9589 28.9653C75.0035 38.9634 74.9923 48.9615 74.9812 58.9596C74.9812 61.3643 74.334 63.5633 72.8389 65.5239C71.1986 67.6795 69.0675 69.0985 66.3673 69.6401C65.3519 69.846 64.3031 69.9759 63.2654 69.9759C45.9148 69.9868 28.5754 69.9976 11.2249 69.9759C8.51349 69.9651 6.05875 69.1527 3.96106 67.387C1.94148 65.7081 0.647159 63.6608 0.234316 61.0935C0.133895 60.4978 0.0111579 59.8912 0.0111579 59.2954C0 49.3406 0 39.3967 0 29.4527C0.0111579 27.048 0.658317 24.849 2.14232 22.8884C3.78253 20.7328 5.92485 19.3138 8.62507 18.7614C9.6516 18.5555 10.7228 18.4472 11.7716 18.4364C15.0632 18.4039 18.3548 18.4256 21.6464 18.4256C22.3493 18.4256 22.9965 18.7614 23.2085 19.3246C23.5544 20.2129 22.896 21.1336 21.903 21.1336C18.2543 21.1336 14.6169 21.1119 10.9682 21.1444C9.08254 21.1553 7.42001 21.7835 5.91369 22.9101C4.59706 23.8958 3.74906 25.1957 3.18001 26.6797C2.80064 27.6762 2.72253 28.7486 2.81179 29.821C2.81179 29.9293 3.01264 30.0485 3.14653 30.1135C3.23579 30.1568 3.35853 30.1243 3.47011 30.1243C9.5177 30.1243 15.5653 30.1243 21.6017 30.1243C21.8249 30.1243 22.0592 30.2218 22.2824 30.2218C22.4274 30.2218 22.5836 30.146 22.7287 30.1027C22.6282 30.0052 22.5278 29.8968 22.4274 29.7994C21.8472 29.2144 21.1777 28.6945 20.7091 28.0337C20.1958 27.3188 20.7537 26.2681 21.6464 26.1272C22.1708 26.0406 22.6952 26.0189 23.2196 26.0081C24.871 25.9973 26.5335 25.9973 28.1849 26.0189C28.5866 26.0189 28.687 25.9431 28.687 25.5315C28.6758 17.6456 28.6758 9.7598 28.6758 1.86314C28.6758 0.595771 29.2672 0 30.6062 0C35.4933 0.0216644 40.3805 0 45.2788 0.0108322C46.283 0.0108322 46.6847 0.379127 46.9413 1.11572C46.9971 1.2782 46.9748 1.47318 46.9748 1.64649C46.9748 9.58649 46.986 17.5373 46.9637 25.4773C46.9637 25.9214 47.0641 26.0297 47.5216 26.0189C49.2176 25.9864 50.9136 25.9864 52.5984 26.0189C53.1675 26.0297 53.7588 26.1164 54.127 26.6688C54.5399 27.2863 54.3614 27.8712 53.9485 28.3695C53.5022 28.9111 52.9443 29.3661 52.431 29.8643C52.3641 29.9402 52.3418 30.0485 52.286 30.1352C52.3976 30.1568 52.5203 30.211 52.6319 30.211C52.8216 30.2001 53.0112 30.1243 53.2009 30.1243C59.282 30.1243 65.3631 30.1135 71.4441 30.1352C71.9574 30.1352 72.0801 30.016 72.1024 29.5069C72.1582 28.1529 71.9351 26.8422 71.2879 25.6615C70.0494 23.4084 68.1972 21.8702 65.5639 21.3611C64.9167 21.2311 64.2473 21.1444 63.589 21.1444C60.1077 21.1228 56.6376 21.1119 53.1563 21.1444C52.1075 21.1553 51.6611 20.5378 51.5719 19.7796C51.4938 19.108 52.3641 18.4256 53.1675 18.4256C56.6264 18.4256 60.0854 18.4256 63.6001 18.4256ZM42.7906 67.2787C49.954 67.2787 57.1062 67.2787 64.2696 67.2679C64.6601 67.2679 65.0618 67.2462 65.4412 67.1596C67.405 66.7263 69.0452 65.7839 70.3283 64.2782C71.5557 62.8375 72.2698 61.1694 72.281 59.3279C72.3479 53.5327 72.3033 47.7375 72.3144 41.9422C72.3144 41.5848 72.1917 41.4873 71.8346 41.4873C62.0715 41.4981 52.3195 41.4981 42.5563 41.4981C42.4001 41.4981 42.2104 41.5414 42.11 41.6281C41.5298 42.2347 40.9719 42.863 40.3916 43.4804C39.8114 44.0978 39.2312 44.7044 38.6287 45.3219C38.3609 45.5927 37.3678 45.5819 37.0777 45.2785C36.1293 44.2603 35.1697 43.2638 34.2102 42.2564C33.8308 41.8664 33.4737 41.5848 32.8154 41.5848C22.9741 41.6173 13.144 41.6064 3.3139 41.5956C2.87874 41.5956 2.77832 41.7039 2.77832 42.1156C2.80064 47.9433 2.78948 53.771 2.80064 59.5987C2.80064 59.9995 2.81179 60.4111 2.91222 60.8011C3.40316 62.7075 4.35159 64.3432 5.9918 65.5672C7.48696 66.6721 9.1718 67.2679 11.0575 67.2787C21.6017 67.2787 32.146 67.2787 42.7906 67.2787ZM26.6116 28.7161C26.1988 28.6836 25.7859 28.6403 25.3731 28.6078C25.2504 28.6078 25.1276 28.6403 25.0049 28.6511C25.083 28.7595 25.1276 28.9003 25.228 28.9869C25.4512 29.1603 25.7302 29.2577 25.9198 29.4527C27.1472 30.7742 28.3634 32.1174 29.5908 33.439C30.3607 34.273 31.1417 35.0963 31.9228 35.9195C33.2394 37.3169 34.5784 38.7142 35.895 40.1116C36.4194 40.6749 36.9439 41.2381 37.4348 41.8231C37.6803 42.1264 37.9481 42.0939 38.1601 41.8664C38.863 41.1082 39.5325 40.3282 40.2243 39.5592C41.3178 38.3135 42.4001 37.0677 43.4935 35.8329C44.2634 34.9663 45.0445 34.1106 45.8256 33.2548C47.0083 31.9225 48.191 30.5901 49.3738 29.2686C49.5523 29.0736 49.7531 28.9003 49.9428 28.727C49.6862 28.727 49.4184 28.7161 49.1506 28.7161C48.0237 28.7161 46.8856 28.662 45.7474 28.727C44.7655 28.792 44.0626 28.0879 44.0626 27.1021C44.0849 19.173 44.0738 11.2546 44.0849 3.32548C44.0961 2.81637 43.9399 2.70805 43.4378 2.70805C39.6552 2.72971 35.8838 2.72971 32.1125 2.70805C31.6104 2.70805 31.4542 2.81637 31.4542 3.32548C31.4765 11.3088 31.4653 19.2813 31.4876 27.2646C31.4876 28.0229 30.7847 28.7703 29.959 28.727C28.8878 28.6728 27.8055 28.7161 26.6116 28.7161ZM12.4411 32.8324C9.41728 32.8324 6.38233 32.8432 3.35853 32.8215C2.84527 32.8107 2.77832 32.9624 2.77832 33.4065C2.81179 34.988 2.81179 36.5803 2.77832 38.1618C2.76716 38.6493 2.8899 38.8009 3.42548 38.8009C12.2179 38.7792 21.0104 38.7901 29.8028 38.7901C30.0036 38.7901 30.2156 38.8767 30.4276 38.8876C30.6173 38.8984 30.8182 38.8659 31.019 38.8551C30.8963 38.7251 30.7735 38.5951 30.6508 38.4651C30.5392 38.3676 30.4276 38.2701 30.3272 38.1726C28.9771 36.7861 27.6158 35.3996 26.2657 34.0022C26.2099 33.9481 26.1653 33.8614 26.1095 33.7964C25.6409 33.2223 25.1723 32.789 24.2685 32.7999C20.3632 32.8649 16.4579 32.8324 12.4411 32.8324ZM65.218 32.8324C60.3085 32.8324 55.399 32.8324 50.4896 32.8215C50.1771 32.8215 49.9428 32.8974 49.7308 33.1357C48.3696 34.6088 46.9971 36.082 45.6247 37.5552C45.2788 37.9235 44.8994 38.2593 44.5312 38.6168C44.4754 38.6817 44.4531 38.7684 44.4085 38.8442C44.4978 38.8551 44.587 38.8984 44.6651 38.8984C44.9664 38.8659 45.2677 38.7901 45.5689 38.7901C54.2386 38.7901 62.8972 38.7901 71.5669 38.8009C72.0132 38.8009 72.214 38.7359 72.214 38.2268C72.1694 36.5586 72.1917 34.9013 72.2029 33.244C72.2029 32.9515 72.1805 32.8107 71.8012 32.8215C69.6477 32.8432 67.4942 32.8324 65.218 32.8324Z" fill="#AD4075"/>
<path d="M63.9126 50.4022C65.2404 51.9728 65.5974 53.7602 65.1288 55.6341C64.5932 57.7897 63.1204 59.1979 60.9557 59.9345C58.4675 60.7794 55.533 59.7828 54.0936 57.8006C53.413 56.8473 53.0225 55.8508 52.8774 54.7026C52.5092 51.6371 54.7185 48.8965 57.6642 48.2357C59.9962 47.7158 62.0604 48.4091 63.7229 50.1205C63.7899 50.1964 63.8345 50.2939 63.9126 50.4022ZM57.296 57.2048C57.8092 57.3456 58.3225 57.5731 58.8469 57.6164C60.0408 57.7139 61.0004 57.2156 61.7814 56.3274C62.5625 55.45 62.6518 54.4318 62.3951 53.4027C62.0604 51.9945 60.7214 50.803 58.7911 50.9005C57.1621 50.9871 55.6557 52.5036 55.5776 53.9985C55.4995 55.3525 56.0909 56.3924 57.296 57.2048Z" fill="#AD4075"/>
<path d="M18.5221 50.9222C15.2305 50.9222 11.9947 50.9222 8.75893 50.9222C8.13408 50.9222 7.45345 50.5539 7.3865 50.0773C7.3084 49.5249 7.26376 48.9075 7.86629 48.55C8.13408 48.3983 8.4465 48.2575 8.73661 48.2467C9.95282 48.2467 11.1579 48.3225 12.3629 48.3117C13.6349 48.3117 14.8958 48.225 16.1566 48.225C17.2836 48.225 18.4105 48.3008 19.5375 48.3225C20.4078 48.3333 21.2669 48.3008 22.1373 48.3225C22.9741 48.355 23.3423 48.8425 23.32 49.8065C23.3088 50.4131 22.7733 50.9114 22.0926 50.9222C20.9211 50.9222 19.7495 50.9222 18.5221 50.9222Z" fill="#AD4075"/>
<path d="M35.8168 48.3223C36.6091 48.4631 36.9996 49.0155 36.9326 49.8171C36.888 50.4345 36.3301 50.922 35.6383 50.922C33.1166 50.922 30.5838 50.922 28.0621 50.922C27.2252 50.922 26.7678 50.3912 26.7789 49.4705C26.7901 48.7881 27.3145 48.3331 28.0844 48.3223C29.4568 48.2898 30.8404 48.2248 32.224 48.2248C33.1947 48.214 34.1655 48.2898 35.1362 48.3223C35.3482 48.3223 35.549 48.3223 35.8168 48.3223Z" fill="#AD4075"/>
</g>
<defs>
<clipPath id="clip0_300_562">
<rect width="75" height="70" fill="white"/>
</clipPath>
</defs>
</svg>
