<svg width="50" height="50" viewBox="0 0 50 50" fill="none" xmlns="http://www.w3.org/2000/svg">
<rect width="50" height="50" rx="10" fill="#E69ABE"/>
<path d="M38.1125 9.17298C37.6976 9.20287 37.2903 9.29927 36.9065 9.4584H36.9014C36.533 9.60303 34.7815 10.3326 32.1187 11.4384L22.5767 15.4176C15.7298 18.2718 8.99918 21.0824 8.99918 21.0824L9.07932 21.0517C9.07932 21.0517 8.61528 21.2027 8.13055 21.5317C7.83109 21.7204 7.5734 21.9672 7.37309 22.2574C7.13525 22.6029 6.94394 23.1315 7.01503 23.6781C7.13137 24.6021 7.73631 25.1563 8.17062 25.4622C8.61011 25.772 9.02891 25.9166 9.02891 25.9166H9.03925L15.351 28.022C15.6341 28.9218 17.2744 34.2615 17.6687 35.4915C17.9014 36.2262 18.1276 36.6857 18.4106 37.0363C18.5477 37.2155 18.7079 37.3653 18.9005 37.4856C19.0007 37.5433 19.1074 37.5888 19.2185 37.6213L19.1539 37.6059C19.1733 37.611 19.1888 37.6264 19.203 37.6315C19.2547 37.6456 19.2896 37.6507 19.3555 37.6609C20.3547 37.9604 21.1574 37.3461 21.1574 37.3461L21.2027 37.3102L24.9292 33.9505L31.1751 38.6951L31.3173 38.7552C32.619 39.321 33.9374 39.0061 34.6341 38.4506C35.336 37.8913 35.6087 37.1759 35.6087 37.1759L35.654 37.0607L40.4806 12.5775C40.6176 11.9734 40.6525 11.4077 40.5013 10.8586C40.3453 10.3029 39.9852 9.82497 39.4917 9.51855C39.0774 9.26912 38.5968 9.14873 38.1125 9.17298ZM37.982 11.7968C37.9768 11.8774 37.9923 11.8684 37.9561 12.0233V12.0374L33.1748 36.2658C33.1541 36.3004 33.1192 36.3759 33.0235 36.4514C32.9227 36.5308 32.8426 36.5807 32.4225 36.4156L24.7832 30.6164L20.1686 34.7812L21.138 28.6505L33.6194 17.1314C34.1339 16.6578 33.962 16.558 33.962 16.558C33.9982 15.9769 33.1851 16.3878 33.1851 16.3878L17.4464 26.042L17.4412 26.0164L9.89754 23.5014V23.4963L9.87815 23.4925C9.89138 23.4881 9.90433 23.483 9.91693 23.4771L9.9583 23.4566L9.99837 23.4426C9.99837 23.4426 16.7341 20.6319 23.5811 17.7777C27.009 16.3481 30.4629 14.9082 33.1192 13.7972C35.7755 12.6927 37.739 11.8825 37.8501 11.839C37.9561 11.7981 37.9057 11.7981 37.982 11.7981V11.7968Z" fill="white"/>
</svg>
