<svg width="50" height="50" viewBox="0 0 50 50" fill="none" xmlns="http://www.w3.org/2000/svg">
<rect width="50" height="50" rx="10" fill="#E69ABE"/>
<path d="M27.3145 35.9122C27.3145 35.9122 27.9823 35.8384 28.3243 35.4729C28.6374 35.1381 28.6265 34.5061 28.6265 34.5061C28.6265 34.5061 28.5849 31.5553 29.9621 31.1196C31.3193 30.6911 33.0621 33.9732 34.9115 35.2353C36.3086 36.1895 37.3691 35.9806 37.3691 35.9806L42.3113 35.9122C42.3113 35.9122 44.8955 35.7538 43.6703 33.732C43.569 33.5663 42.9555 32.2359 39.9967 29.5029C36.8967 26.6421 37.313 27.1048 41.0445 22.1556C43.3175 19.1418 44.2259 17.3018 43.9418 16.515C43.6722 15.7625 42 15.9623 42 15.9623L36.4371 15.9965C36.4371 15.9965 36.0245 15.9407 35.7187 16.1225C35.4201 16.3008 35.2264 16.7167 35.2264 16.7167C35.2264 16.7167 34.3469 19.0481 33.1724 21.0322C30.695 25.2162 29.7051 25.4377 29.2997 25.1784C28.3569 24.5717 28.5922 22.7443 28.5922 21.4462C28.5922 17.39 29.2111 15.6994 27.3887 15.262C26.7843 15.1161 26.3391 15.0207 24.7919 15.0045C22.8066 14.9847 21.1273 15.0117 20.1754 15.4744C19.542 15.7823 19.0534 16.47 19.352 16.5096C19.7193 16.5582 20.5518 16.7329 20.9934 17.3306C21.5634 18.1029 21.5435 19.8349 21.5435 19.8349C21.5435 19.8349 21.871 24.6095 20.778 25.2018C20.0288 25.6087 19.0009 24.7787 16.7913 20.9817C15.6603 19.0373 14.8061 16.8877 14.8061 16.8877C14.8061 16.8877 14.6414 16.4862 14.3464 16.2702C13.9899 16.0091 13.4923 15.9281 13.4923 15.9281L8.20622 15.9623C8.20622 15.9623 7.41177 15.9839 7.12041 16.3278C6.86163 16.632 7.10051 17.264 7.10051 17.264C7.10051 17.264 11.2392 26.8978 15.9263 31.7534C20.2242 36.2039 25.1031 35.9122 25.1031 35.9122H27.3145Z" stroke="white" stroke-width="2.3"/>
</svg>
