<svg width="164" height="164" viewBox="0 0 164 164" fill="none" xmlns="http://www.w3.org/2000/svg">
<circle cx="81.6787" cy="81.6785" r="80" fill="#F9DDEA"/>
<circle cx="81.6787" cy="81.6785" r="80" fill="url(#paint0_radial_1296_7157)"/>
<circle cx="81.6787" cy="81.6785" r="80" stroke="#EA87B6" stroke-width="3.35704"/>
<circle cx="81.6787" cy="81.6785" r="80" stroke="url(#paint1_linear_1296_7157)" stroke-width="3.35704"/>
<ellipse cx="51.9837" cy="49.1091" rx="1.37143" ry="1.29024" fill="black"/>
<path d="M50.6764 50.3668C54.4851 51.841 54.9057 48.9972 54.6399 47.391C53.467 46.9818 51.0323 47.004 50.6764 50.3668Z" stroke="black" stroke-width="1.22074"/>
<path d="M99.8018 45.1749C100.185 45.3497 100.638 45.1805 100.812 44.797C100.987 44.4136 100.818 43.9611 100.435 43.7864L99.8018 45.1749ZM64.6134 54.9358L63.984 54.5047C63.7682 54.8196 63.8185 55.2456 64.1016 55.5017C64.3848 55.7578 64.8137 55.7652 65.1055 55.5189L64.6134 54.9358ZM63.7992 38.8266L63.0469 38.699C62.9979 38.988 63.1188 39.2796 63.3579 39.4491L63.7992 38.8266ZM63.7992 34.7146L63.094 35.0059L63.7992 34.7146ZM59.7496 29.4882L60.109 28.8152L59.0968 28.2748L58.99 29.4172L59.7496 29.4882ZM42.5944 53.6406L41.8464 53.4906L41.8428 53.5082L41.8401 53.526L42.5944 53.6406ZM60.6516 85.2597L61.2308 85.7562L60.6516 85.2597ZM107.139 81.9073L107.173 82.6695C107.542 82.6534 107.846 82.375 107.896 82.0087L107.139 81.9073ZM117.261 72.9168L117.956 73.2318L117.965 73.2113L117.973 73.1903L117.261 72.9168ZM103.394 45.793L103.558 45.0477C103.183 44.9654 102.804 45.1751 102.676 45.5371L103.394 45.793ZM113.511 34.7146L113.851 34.0315L113.511 34.7146ZM115.813 21.4893C116.235 21.4893 116.576 21.1477 116.576 20.7263C116.576 20.3049 116.235 19.9634 115.813 19.9634V21.4893ZM100.435 43.7864C92.5949 40.2137 83.4349 42.9728 76.3985 46.4596C72.8541 48.216 69.7892 50.1863 67.6117 51.716C66.5222 52.4814 65.6528 53.1379 65.0544 53.6042C64.7552 53.8374 64.5236 54.0231 64.366 54.1512C64.2872 54.2153 64.2269 54.265 64.1858 54.299C64.1653 54.316 64.1496 54.3291 64.1388 54.3381C64.1335 54.3426 64.1293 54.3461 64.1264 54.3485C64.1249 54.3498 64.1238 54.3507 64.1229 54.3514C64.1225 54.3518 64.1221 54.3521 64.1219 54.3523C64.1216 54.3526 64.1214 54.3528 64.6134 54.9358C65.1055 55.5189 65.1054 55.519 65.1054 55.519C65.1055 55.5189 65.1056 55.5189 65.1058 55.5187C65.1062 55.5183 65.1069 55.5177 65.1079 55.5169C65.11 55.5151 65.1133 55.5124 65.1178 55.5086C65.1268 55.501 65.1408 55.4894 65.1595 55.4739C65.1969 55.4429 65.2535 55.3963 65.3285 55.3353C65.4785 55.2134 65.7019 55.0342 65.9923 54.8079C66.5734 54.355 67.4225 53.7138 68.4889 52.9646C70.6233 51.4652 73.6203 49.5393 77.076 47.8269C84.0396 44.3761 92.632 41.9076 99.8018 45.1749L100.435 43.7864ZM64.6134 54.9358C65.2429 55.367 65.243 55.3667 65.2433 55.3664C65.2434 55.3663 65.2436 55.3659 65.2438 55.3656C65.2443 55.365 65.2448 55.3642 65.2455 55.3632C65.2468 55.3613 65.2485 55.3587 65.2506 55.3556C65.2549 55.3492 65.2609 55.3403 65.2685 55.329C65.2836 55.3063 65.3051 55.2738 65.3322 55.2319C65.3865 55.1481 65.4635 55.0267 65.5578 54.8715C65.7461 54.5612 66.004 54.1145 66.287 53.5614C66.8512 52.4589 67.5242 50.9166 67.9394 49.1788C68.3541 47.4436 68.5211 45.4744 68.0309 43.5414C67.536 41.5902 66.3822 39.7225 64.2404 38.2042L63.3579 39.4491C65.2041 40.7578 66.1462 42.3173 66.5518 43.9165C66.962 45.5341 66.8341 47.2389 66.4553 48.8242C66.0771 50.407 65.458 51.8318 64.9286 52.8663C64.6648 53.3818 64.4255 53.7961 64.2534 54.0796C64.1674 54.2213 64.0983 54.3301 64.0516 54.4022C64.0282 54.4382 64.0104 54.4651 63.999 54.4824C63.9932 54.491 63.989 54.4972 63.9865 54.5009C63.9852 54.5028 63.9844 54.5041 63.984 54.5047C63.9837 54.505 63.9836 54.5051 63.9836 54.5051C63.9836 54.5051 63.9837 54.505 63.9837 54.505C63.9838 54.5049 63.984 54.5047 64.6134 54.9358ZM63.7992 38.8266C64.5514 38.9542 64.5514 38.9542 64.5514 38.954C64.5514 38.954 64.5514 38.9539 64.5514 38.9538C64.5515 38.9536 64.5515 38.9533 64.5516 38.953C64.5517 38.9524 64.5518 38.9517 64.552 38.9507C64.5523 38.9489 64.5527 38.9463 64.5532 38.943C64.5543 38.9365 64.5558 38.9273 64.5578 38.9155C64.5616 38.8918 64.567 38.8578 64.5736 38.8145C64.5869 38.728 64.605 38.6043 64.6251 38.4526C64.6651 38.1499 64.7134 37.732 64.7457 37.2731C64.7778 36.8164 64.7951 36.3061 64.7697 35.8222C64.745 35.353 64.6777 34.8432 64.5043 34.4234L63.094 35.0059C63.1678 35.1847 63.2241 35.4882 63.2458 35.9022C63.2668 36.3015 63.2532 36.7444 63.2235 37.166C63.194 37.5855 63.1495 37.9711 63.1123 38.2524C63.0938 38.3927 63.0771 38.5061 63.0652 38.5836C63.0593 38.6224 63.0546 38.6522 63.0514 38.6718C63.0498 38.6816 63.0486 38.6889 63.0479 38.6934C63.0475 38.6957 63.0472 38.6974 63.0471 38.6983C63.047 38.6988 63.0469 38.6991 63.0469 38.6992C63.0469 38.6993 63.0469 38.6993 63.0469 38.6992C63.0469 38.6992 63.0469 38.6992 63.0469 38.6992C63.0469 38.6991 63.0469 38.699 63.7992 38.8266ZM64.5043 34.4234C63.6515 32.3586 62.5807 30.9698 61.7069 30.0897C61.2706 29.6503 60.8847 29.3389 60.6012 29.1338C60.4594 29.0313 60.3432 28.9553 60.2591 28.9031C60.217 28.877 60.1829 28.8569 60.1576 28.8424C60.145 28.8351 60.1346 28.8292 60.1264 28.8247C60.1223 28.8224 60.1188 28.8205 60.1159 28.8189C60.1145 28.8182 60.1132 28.8174 60.112 28.8168C60.1114 28.8165 60.1109 28.8162 60.1104 28.8159C60.1101 28.8158 60.1098 28.8156 60.1097 28.8156C60.1093 28.8154 60.109 28.8152 59.7496 29.4882C59.3902 30.1613 59.3899 30.1611 59.3896 30.1609C59.3895 30.1609 59.3892 30.1607 59.3891 30.1606C59.3887 30.1604 59.3884 30.1603 59.3881 30.1601C59.3875 30.1598 59.3871 30.1596 59.3868 30.1594C59.3863 30.1591 59.3863 30.1591 59.3868 30.1594C59.388 30.16 59.3913 30.1619 59.3969 30.1651C59.4079 30.1715 59.4275 30.183 59.455 30.2C59.5098 30.234 59.5958 30.2899 59.7068 30.3702C59.9289 30.5309 60.2509 30.789 60.624 31.1648C61.369 31.9151 62.323 33.1395 63.094 35.0059L64.5043 34.4234ZM59.7496 29.4882C58.99 29.4172 58.99 29.4168 58.99 29.4165C58.99 29.4165 58.9901 29.4162 58.9901 29.4161C58.9901 29.4158 58.9901 29.4157 58.9901 29.4156C58.9901 29.4156 58.9901 29.4159 58.99 29.4166C58.9899 29.4181 58.9895 29.4213 58.989 29.4261C58.988 29.4356 58.9862 29.4516 58.9834 29.4737C58.9779 29.5179 58.9686 29.5867 58.9542 29.6774C58.9254 29.859 58.8762 30.1282 58.7959 30.465C58.635 31.1395 58.3506 32.0802 57.8586 33.1302C56.876 35.2269 55.0715 37.7497 51.7647 39.4788L52.4718 40.831C56.1397 38.9131 58.1508 36.1026 59.2403 33.7777C59.7843 32.6169 60.0999 31.5748 60.2802 30.819C60.3704 30.4408 60.427 30.1331 60.4613 29.9165C60.4785 29.8082 60.4901 29.7226 60.4977 29.6622C60.5014 29.632 60.5041 29.6082 60.506 29.5909C60.507 29.5823 60.5077 29.5753 60.5082 29.57C60.5085 29.5674 60.5087 29.5652 60.5089 29.5634C60.509 29.5625 60.509 29.5617 60.5091 29.561C60.5091 29.5607 60.5092 29.5602 60.5092 29.5601C60.5092 29.5597 60.5093 29.5593 59.7496 29.4882ZM51.7647 39.4788C48.205 41.3401 46.0201 43.2019 44.575 45.4728C43.142 47.7248 42.4842 50.31 41.8464 53.4906L43.3425 53.7906C43.9791 50.6166 44.5958 48.2825 45.8624 46.292C47.117 44.3204 49.0568 42.6166 52.4718 40.831L51.7647 39.4788ZM42.8743 54.3504C44.1969 53.8288 45.0755 53.6536 45.5709 53.6619C45.8232 53.6661 45.8804 53.7168 45.8535 53.6976C45.7778 53.6434 45.7441 53.5396 45.7472 53.4898C45.7475 53.4844 45.7468 53.5074 45.7239 53.5632C45.7014 53.618 45.6624 53.6928 45.5987 53.7869C45.4703 53.9766 45.2642 54.2118 44.9661 54.4802C44.3708 55.0161 43.4654 55.6338 42.2524 56.242L42.9364 57.606C44.2378 56.9535 45.2656 56.2637 45.987 55.6143C46.3472 55.29 46.6453 54.963 46.8624 54.6422C47.072 54.3325 47.2464 53.9695 47.2702 53.5837C47.2971 53.1478 47.1241 52.7305 46.7416 52.4567C46.4079 52.2179 45.9906 52.1428 45.5965 52.1362C44.7991 52.1228 43.6967 52.3858 42.3145 52.9308L42.8743 54.3504ZM42.5944 53.6406C41.8401 53.526 41.8401 53.5264 41.84 53.5268C41.84 53.5269 41.8399 53.5273 41.8399 53.5276C41.8398 53.5282 41.8397 53.5289 41.8396 53.5296C41.8394 53.531 41.8391 53.5326 41.8389 53.5344C41.8383 53.5381 41.8377 53.5427 41.837 53.548C41.8355 53.5588 41.8337 53.5729 41.8316 53.5902C41.8275 53.6248 41.8225 53.6723 41.8177 53.7311C41.8081 53.8486 41.7993 54.0125 41.8007 54.2106C41.8035 54.6043 41.8467 55.1475 42.0129 55.736C42.3526 56.9384 43.2106 58.3191 45.1784 58.956L45.6484 57.5043C44.2648 57.0565 43.7134 56.1423 43.4814 55.3212C43.3618 54.8979 43.3287 54.4971 43.3265 54.1998C43.3255 54.0524 43.3321 53.934 43.3385 53.8555C43.3417 53.8164 43.3448 53.7875 43.3469 53.7702C43.3479 53.7616 43.3487 53.7559 43.349 53.7534C43.3492 53.7521 43.3493 53.7516 43.3492 53.7519C43.3492 53.752 43.3492 53.7524 43.3491 53.7529C43.349 53.7532 43.349 53.7535 43.3489 53.7539C43.3489 53.7541 43.3489 53.7544 43.3488 53.7545C43.3488 53.7548 43.3487 53.7552 42.5944 53.6406ZM45.1784 58.956C48.7099 60.0991 51.7615 59.8881 55.3548 58.9693L54.9768 57.491C51.5605 58.3645 48.8196 58.5308 45.6484 57.5043L45.1784 58.956ZM55.3548 58.9693C56.3057 58.7262 57.068 58.3458 57.598 58.1189C58.1898 57.8655 58.4057 57.847 58.559 57.8996C58.7265 57.9571 59.0579 58.1891 59.575 59.1538C60.0755 60.0877 60.6712 61.5523 61.4551 63.7969L62.8957 63.2938C62.1086 61.0401 61.4806 59.4792 60.9199 58.433C60.3758 57.4177 59.8083 56.7151 59.0543 56.4563C58.286 56.1927 57.5577 56.4763 56.9975 56.7161C56.3757 56.9823 55.7783 57.286 54.9768 57.491L55.3548 58.9693ZM61.4551 63.7969C64.5233 72.5822 61.8989 78.9354 57.5521 81.2327L58.2652 82.5818C63.5184 79.8054 66.1115 72.5017 62.8957 63.2938L61.4551 63.7969ZM57.5521 81.2327C55.218 82.4664 53.3509 82.8605 51.8556 83.3861C51.1393 83.638 50.444 83.9443 49.9381 84.4618C49.3947 85.0177 49.1457 85.7329 49.1457 86.6287H50.6716C50.6716 86.04 50.8226 85.7399 51.0292 85.5285C51.2733 85.2789 51.678 85.066 52.3617 84.8257C53.6664 84.3671 55.7993 83.8851 58.2652 82.5818L57.5521 81.2327ZM49.1457 86.6287C49.1457 88.2887 49.6877 89.4741 50.6529 90.2151C51.5793 90.9263 52.7688 91.1274 53.8705 91.1274V89.6015C52.9134 89.6015 52.122 89.4192 51.5821 89.0047C51.0812 88.6202 50.6716 87.9378 50.6716 86.6287H49.1457ZM53.8705 91.1274C55.1481 91.1274 56.324 90.5337 57.4812 89.6078C58.6373 88.6827 59.8581 87.3577 61.2308 85.7562L60.0723 84.7631C58.7021 86.3616 57.5618 87.589 56.5279 88.4163C55.495 89.2427 54.6519 89.6015 53.8705 89.6015V91.1274ZM61.2308 85.7562C77.4483 66.8363 89.101 63.8081 96.3512 66.2817C100 67.5267 102.673 70.1979 104.356 73.1957C106.048 76.2074 106.697 79.4695 106.383 81.8058L107.896 82.0087C108.262 79.2784 107.504 75.6849 105.687 72.4485C103.861 69.1983 100.923 66.229 96.8439 64.8375C88.6384 62.038 76.3673 65.7527 60.0723 84.7631L61.2308 85.7562ZM107.139 81.9073C107.106 81.145 107.106 81.145 107.106 81.1451C107.106 81.1451 107.105 81.1451 107.105 81.1451C107.104 81.1451 107.104 81.1451 107.103 81.1452C107.102 81.1452 107.1 81.1453 107.097 81.1454C107.093 81.1457 107.086 81.146 107.079 81.1464C107.063 81.1473 107.04 81.1485 107.012 81.1504C106.956 81.154 106.875 81.1599 106.773 81.1689C106.571 81.187 106.284 81.2177 105.941 81.269C105.26 81.371 104.338 81.5566 103.407 81.8934C101.597 82.5481 99.4314 83.909 99.4314 86.6287H100.957C100.957 84.9294 102.264 83.9296 103.926 83.3283C104.732 83.0371 105.547 82.8709 106.167 82.7781C106.476 82.732 106.732 82.7046 106.909 82.6889C106.997 82.681 107.066 82.676 107.111 82.6731C107.133 82.6717 107.15 82.6707 107.161 82.6701C107.166 82.6699 107.169 82.6697 107.171 82.6696C107.172 82.6695 107.173 82.6695 107.173 82.6695C107.173 82.6695 107.173 82.6695 107.173 82.6695C107.173 82.6695 107.173 82.6695 107.173 82.6695C107.173 82.6695 107.173 82.6695 107.139 81.9073ZM99.4314 86.6287C99.4314 87.2958 99.5845 87.8917 99.9251 88.3725C100.269 88.8583 100.757 89.1576 101.297 89.3116C102.335 89.6073 103.63 89.3898 104.89 88.9387C107.439 88.0258 110.392 85.9567 112.092 83.5688L110.849 82.6839C109.349 84.7911 106.664 86.6827 104.375 87.5021C103.216 87.917 102.292 88.0084 101.715 87.8441C101.449 87.7681 101.28 87.6452 101.17 87.4902C101.057 87.33 100.957 87.0663 100.957 86.6287H99.4314ZM112.092 83.5688C113.72 81.2816 115.186 78.6956 116.241 76.6912C116.77 75.6869 117.197 74.8242 117.493 74.2119C117.641 73.9057 117.756 73.6618 117.835 73.494C117.874 73.4101 117.904 73.3451 117.924 73.3009C117.934 73.2788 117.942 73.2618 117.948 73.2502C117.95 73.2444 117.952 73.24 117.954 73.2369C117.954 73.2354 117.955 73.2342 117.955 73.2333C117.955 73.2329 117.956 73.2326 117.956 73.2323C117.956 73.2322 117.956 73.2321 117.956 73.232C117.956 73.2319 117.956 73.2318 117.261 72.9168C116.566 72.6018 116.566 72.6017 116.566 72.6017C116.566 72.6018 116.566 72.6018 116.566 72.6018C116.566 72.6019 116.566 72.6021 116.566 72.6024C116.566 72.6029 116.565 72.6038 116.565 72.605C116.564 72.6075 116.562 72.6113 116.559 72.6164C116.555 72.6268 116.548 72.6424 116.538 72.6633C116.519 72.7049 116.49 72.7671 116.452 72.8482C116.376 73.0105 116.264 73.2482 116.119 73.5479C115.83 74.1475 115.41 74.9943 114.891 75.9805C113.85 77.957 112.421 80.4758 110.849 82.6839L112.092 83.5688ZM117.973 73.1903C120.027 67.8431 120.487 63.5441 119.833 59.9675C119.177 56.3829 117.418 53.6034 115.178 51.2761L114.078 52.3342C116.167 54.5044 117.743 57.0236 118.332 60.2419C118.921 63.4681 118.533 67.4762 116.549 72.6433L117.973 73.1903ZM115.178 51.2761C112.911 48.9208 109.995 47.3684 107.68 46.4078C106.517 45.9253 105.493 45.5868 104.758 45.3685C104.39 45.2593 104.094 45.1799 103.888 45.1275C103.785 45.1012 103.704 45.0817 103.648 45.0686C103.62 45.062 103.599 45.057 103.584 45.0535C103.576 45.0518 103.57 45.0505 103.566 45.0495C103.564 45.049 103.562 45.0486 103.561 45.0483C103.56 45.0482 103.559 45.0481 103.559 45.048C103.559 45.0479 103.558 45.0479 103.558 45.0478C103.558 45.0478 103.558 45.0477 103.394 45.793C103.231 46.5382 103.231 46.5382 103.231 46.5382C103.231 46.5382 103.231 46.5381 103.231 46.5381C103.23 46.5381 103.231 46.5382 103.231 46.5382C103.231 46.5383 103.232 46.5384 103.233 46.5387C103.235 46.5392 103.239 46.5401 103.245 46.5414C103.256 46.544 103.274 46.548 103.298 46.5536C103.345 46.5649 103.417 46.5823 103.511 46.6062C103.7 46.6542 103.977 46.7283 104.324 46.8313C105.018 47.0376 105.991 47.3589 107.095 47.8172C109.315 48.7384 112.016 50.192 114.078 52.3342L115.178 51.2761ZM103.394 45.793C102.676 45.5371 102.675 45.5376 102.675 45.538C102.675 45.5382 102.675 45.5387 102.675 45.5391C102.675 45.5398 102.674 45.5406 102.674 45.5414C102.674 45.5431 102.673 45.5451 102.672 45.5474C102.67 45.5519 102.669 45.5575 102.666 45.5642C102.662 45.5777 102.656 45.5955 102.649 45.6174C102.636 45.6613 102.618 45.7219 102.598 45.7976C102.558 45.9487 102.511 46.1611 102.473 46.4213C102.398 46.9395 102.359 47.661 102.513 48.4691C102.829 50.1322 103.937 52.0352 106.839 53.2776L107.44 51.8748C104.997 50.8292 104.232 49.3406 104.012 48.184C103.898 47.5824 103.925 47.0371 103.983 46.6409C104.012 46.4439 104.047 46.2873 104.074 46.1836C104.088 46.1319 104.099 46.0937 104.106 46.0706C104.11 46.0591 104.112 46.0514 104.114 46.0477C104.114 46.0458 104.115 46.045 104.114 46.0452C104.114 46.0452 104.114 46.0456 104.114 46.0462C104.114 46.0465 104.114 46.0469 104.114 46.0473C104.114 46.0475 104.114 46.0479 104.113 46.048C104.113 46.0484 104.113 46.0488 103.394 45.793ZM106.839 53.2776C109.826 54.5559 113.092 53.7677 115.564 51.7412C118.041 49.7119 119.776 46.4089 119.776 42.5168H118.25C118.25 45.9492 116.722 48.8199 114.597 50.561C112.469 52.3051 109.798 52.8844 107.44 51.8748L106.839 53.2776ZM119.776 42.5168C119.776 37.4646 116.209 35.2044 113.851 34.0315L113.171 35.3978C115.418 36.5152 118.25 38.3896 118.25 42.5168H119.776ZM113.851 34.0315C109.913 32.0733 108.558 28.8784 109.024 26.296C109.486 23.7307 111.794 21.4893 115.813 21.4893V19.9634C111.159 19.9634 108.133 22.6363 107.522 26.0252C106.914 29.3969 108.744 33.1962 113.171 35.3978L113.851 34.0315Z" fill="black"/>
<path d="M38.5985 95.7292C38.5985 95.1386 38.3285 94.5817 37.7885 94.0586C37.0122 93.3161 36.3453 93.2592 34.7453 92.9702C33.5472 92.9702 32.051 93.2064 30.5997 93.7295C29.8404 93.9995 29.1822 94.3708 28.6254 94.8433C27.7647 95.5858 27.3344 96.3283 27.3344 97.0708C27.3344 98.0664 27.9672 98.9608 29.2329 99.7539C29.7054 100.041 30.6504 100.513 32.0679 101.171C33.5022 101.813 34.5485 102.336 35.2066 102.741C36.2022 103.348 36.8857 103.998 37.2569 104.69C37.645 105.382 37.8391 106.023 37.8391 106.614C37.8391 107.457 37.5607 108.318 37.0038 109.195C36.025 110.765 34.5907 112.115 32.7007 113.245C30.5238 114.562 27.8997 115.22 24.8285 115.22C21.8754 115.22 19.5297 114.469 17.7916 112.967C16.4416 111.82 15.7666 110.343 15.7666 108.537C15.7666 107.39 15.9375 105.441 16.7644 104.057C17.6081 102.673 18.2922 102.277 19.5072 101.703C19.7604 101.602 20.5338 101.669 20.6519 101.703C20.7869 101.737 21.3685 102.024 21.031 102.31C20.3054 102.884 20.095 102.31 18.6016 104.082C17.6566 105.567 17.1841 107.179 17.1841 108.917C17.1841 110.065 17.5047 111.069 18.146 111.929C19.2935 113.465 21.2847 114.334 24.1197 114.536C24.4404 114.57 24.9129 114.587 25.5372 114.587C26.1785 114.587 27.0391 114.469 28.1191 114.233C29.216 114.013 30.2707 113.642 31.2832 113.119C33.46 111.971 34.8691 110.486 35.5104 108.664C35.7129 108.124 35.8141 107.601 35.8141 107.095C35.8141 105.947 35.2994 104.935 34.27 104.057C33.7132 103.618 32.5741 103.036 30.8529 102.31C29.1485 101.568 28.001 101.003 27.4104 100.615C26.111 99.737 25.4613 98.6992 25.4613 97.5011C25.4613 96.4548 26.0435 95.4339 27.2079 94.4383C28.8785 93.0208 31.2157 91.8115 34.27 91.8115C35.7044 91.8115 36.9447 92.0585 37.8391 92.4973C38.7504 92.9191 39.8762 93.6176 40.0787 94.4782C40.2812 95.3388 40.3834 95.7292 40.3834 95.7292C40.3834 95.7292 40.3814 96.7741 39.7739 97.2973C39.352 97.6348 38.6541 97.8567 37.9453 98.0592C37.6416 98.1435 36.43 98.0327 36.3963 97.8808C36.1168 97.5258 35.9407 96.8145 36.3963 96.7639C37.2063 96.6627 38.1739 96.7639 38.5985 95.7292Z" fill="black"/>
<path d="M52.0234 104.614C49.9646 108.276 48.9353 110.638 48.9353 111.701C48.9353 112.174 49.0956 112.41 49.4162 112.41C49.8212 112.41 50.2853 112.106 50.8084 111.499C51.6015 110.537 52.2934 109.381 52.884 108.031C52.9853 107.795 53.0865 107.702 53.1878 107.753C53.289 107.803 53.3396 107.871 53.3396 107.955C53.3396 108.04 53.2553 108.25 53.0865 108.588C52.9178 108.925 52.7828 109.195 52.6815 109.398C52.5803 109.6 52.3525 109.989 51.9981 110.562C51.6606 111.136 51.3653 111.558 51.1121 111.828C50.8759 112.098 50.5637 112.368 50.1756 112.638C49.8043 112.891 49.374 113.018 48.8846 113.018C48.4121 113.018 48.0071 112.781 47.6696 112.309C47.5178 112.09 47.4418 111.794 47.4418 111.423C47.4418 111.035 47.5262 110.571 47.695 110.031C47.8637 109.491 48.3278 108.613 49.0871 107.398C49.2728 107.095 49.3656 106.858 49.3656 106.69C49.3656 106.504 49.2221 106.411 48.9353 106.411C48.6653 106.411 48.1675 106.749 47.4418 107.424C46.7162 108.099 45.9484 109.01 45.1384 110.157C44.3453 111.305 43.8728 112.225 43.7209 112.916C43.434 112.916 43.2231 112.798 43.0881 112.562C42.9531 112.326 42.8856 112.123 42.8856 111.955C42.8856 111.263 43.3496 109.946 44.2778 108.006C44.5815 107.365 44.7418 106.934 44.7587 106.715C44.7756 106.479 44.7418 106.361 44.6575 106.361C44.59 106.344 44.4887 106.369 44.3537 106.436C44.05 106.588 43.5859 106.96 42.9615 107.55C41.7803 108.63 40.6159 110.275 39.4684 112.486C39.384 112.672 39.2743 112.79 39.1393 112.84C39.0212 112.874 38.7765 112.9 38.4053 112.916C38.034 112.933 37.7893 112.975 37.6712 113.043C37.975 112.452 38.5065 111.347 39.2659 109.727C40.6328 106.825 41.831 105.526 37.7168 107.095C37.9193 106.892 42.4806 104.411 42.835 104.411C42.9025 104.411 43.1218 104.361 43.3918 104.411C43.7715 104.411 43.839 104.546 43.974 104.513C43.3496 104.85 42.3287 106.436 40.9112 109.271C41.7043 108.293 42.2696 107.651 42.6071 107.348C42.9615 107.044 43.2231 106.816 43.3918 106.664C43.5606 106.512 43.6871 106.394 43.7715 106.31C43.8728 106.226 44.0078 106.107 44.1765 105.955C44.3621 105.787 44.4972 105.669 44.5815 105.601C44.6828 105.517 44.8178 105.407 44.9865 105.272C45.1553 105.137 45.2818 105.053 45.3662 105.019C45.4675 104.968 45.594 104.892 45.7459 104.791C45.9146 104.69 46.0328 104.639 46.1003 104.639C46.1846 104.639 46.2943 104.622 46.4293 104.589C46.5643 104.538 46.6571 104.546 46.7078 104.614C47.0453 104.749 47.214 104.96 47.214 105.247C47.214 105.5 46.9272 106.15 46.3534 107.196C45.7796 108.242 45.4084 108.934 45.2396 109.271C45.9821 108.343 46.6909 107.584 47.3659 106.993C48.0409 106.386 48.834 105.829 49.7453 105.323C50.6734 104.816 51.3484 104.563 51.7703 104.563C51.8715 104.563 51.9559 104.58 52.0234 104.614Z" fill="black"/>
<path d="M57.4867 104.057C58.7186 104.057 59.3346 104.833 59.3346 106.386C59.3346 107.095 59.1489 107.854 58.7777 108.664C58.3052 109.761 57.5964 110.756 56.6514 111.651C56.8708 112.073 57.2674 112.284 57.8411 112.284C58.2967 112.284 58.7271 112.056 59.1321 111.6C59.6383 111.077 60.0011 110.621 60.2205 110.233C60.4399 109.828 60.6002 109.533 60.7014 109.347C60.8027 109.162 60.9292 108.9 61.0811 108.563C61.2499 108.208 61.3511 107.997 61.3849 107.93C61.4186 107.845 61.4777 107.803 61.5621 107.803C61.7308 107.786 61.8152 107.845 61.8152 107.98C61.8152 108.031 61.7983 108.09 61.7646 108.158L61.6127 108.512C61.5114 108.748 61.4355 108.917 61.3849 109.018C61.3342 109.12 61.2414 109.305 61.1064 109.575C60.9883 109.828 60.8786 110.031 60.7774 110.183C60.693 110.335 60.5664 110.537 60.3977 110.79C60.2458 111.043 60.1024 111.246 59.9674 111.398C59.8492 111.55 59.6974 111.718 59.5117 111.904C59.3261 112.09 59.1489 112.233 58.9802 112.334C58.5583 112.587 58.1617 112.714 57.7905 112.714C57.0986 112.714 56.5586 112.495 56.1705 112.056C55.3942 112.63 54.6771 112.916 54.0189 112.916C52.7871 112.916 52.1711 112.14 52.1711 110.588C52.1711 109.879 52.3567 109.12 52.728 108.31C53.2342 107.128 53.943 106.124 54.8542 105.297C55.7824 104.47 56.6599 104.057 57.4867 104.057ZM57.7652 104.842C57.3096 104.842 56.7696 105.145 56.1452 105.753C55.5208 106.36 54.9639 107.187 54.4746 108.234C53.8839 109.449 53.5886 110.444 53.5886 111.22C53.5886 111.997 53.8839 112.385 54.4746 112.385C54.8964 112.385 55.3689 112.157 55.8921 111.701C55.6221 111.313 55.4871 110.9 55.4871 110.461C55.5208 109.735 55.8161 109.373 56.373 109.373C56.5924 109.373 56.7696 109.449 56.9046 109.6C57.0564 109.752 57.1324 109.896 57.1324 110.031C57.1324 110.149 57.1155 110.275 57.0817 110.41C57.3686 109.989 57.6977 109.39 58.0689 108.613C58.4908 107.753 58.7017 106.909 58.7017 106.082C58.7017 105.255 58.3896 104.842 57.7652 104.842Z" fill="black"/>
<path d="M62.7508 108.031C62.7339 108.099 62.6579 108.335 62.5229 108.74C62.3879 109.128 62.2698 109.508 62.1686 109.879C62.0842 110.233 62.042 110.596 62.042 110.967C62.042 111.322 62.1264 111.659 62.2951 111.98C62.4639 112.284 62.7339 112.435 63.1051 112.435C63.7126 112.435 64.3033 112.03 64.877 111.22C65.4508 110.394 66.0583 109.347 66.6995 108.082C66.8345 107.845 66.9611 107.753 67.0792 107.803C67.1636 107.871 67.1804 107.964 67.1298 108.082C67.0792 108.183 66.9695 108.419 66.8008 108.79C66.6489 109.145 66.5308 109.398 66.4464 109.55C66.3789 109.685 66.2439 109.938 66.0414 110.309C65.8558 110.664 65.687 110.934 65.5351 111.119C65.4001 111.288 65.2061 111.516 64.9529 111.803C64.7167 112.073 64.4889 112.275 64.2695 112.41C63.6789 112.781 63.122 112.967 62.5989 112.967C62.0758 112.967 61.6708 112.857 61.3839 112.638C61.097 112.402 60.9198 112.157 60.8523 111.904C60.8017 111.634 60.7764 111.398 60.7764 111.195C60.7764 110.993 60.7848 110.731 60.8017 110.41C60.8523 109.87 60.9536 109.347 61.1054 108.841C61.2742 108.335 61.367 108.048 61.3839 107.98C61.772 106.58 62.3204 105.053 63.0292 103.399C63.7548 101.745 64.3623 100.505 64.8517 99.678C65.3579 98.8342 65.7545 98.2605 66.0414 97.9567C66.6151 97.3492 67.1804 97.0455 67.7373 97.0455C68.1254 97.0455 68.387 97.3239 68.522 97.8808C68.5389 97.982 68.5473 98.1086 68.5473 98.2605C68.5473 98.8342 68.3448 99.5599 67.9398 100.437C66.4886 103.66 64.7589 106.192 62.7508 108.031ZM62.9533 107.221C63.8139 106.344 64.6661 105.238 65.5098 103.905C66.3536 102.572 66.9695 101.441 67.3576 100.513C67.7626 99.5683 67.9651 98.927 67.9651 98.5895C67.9651 98.252 67.9061 98.0833 67.7879 98.0833C67.6192 98.0833 67.2986 98.4208 66.8261 99.0958C66.3536 99.7539 65.7123 100.952 64.9023 102.69C64.1092 104.411 63.4595 105.922 62.9533 107.221Z" fill="black"/>
<path d="M74.8215 105.069C74.5178 105.372 73.6836 107.052 73.1267 108.132C72.5698 109.195 72.2323 109.997 72.1142 110.537C72.013 111.06 71.9623 111.49 71.9623 111.828C71.9623 112.149 72.0889 112.309 72.342 112.309C72.6626 112.309 73.0592 112.014 73.5317 111.423C74.2236 110.562 74.907 109.44 75.582 108.056C75.6495 107.905 75.7255 107.82 75.8098 107.803C75.9448 107.753 76.0123 107.803 76.0123 107.955C76.0123 108.04 75.987 108.141 75.9364 108.259C74.3839 111.398 73.0761 112.967 72.013 112.967C71.5236 112.967 71.127 112.731 70.8233 112.258C70.6714 112.005 70.5955 111.668 70.5955 111.246C70.5955 110.824 70.6798 110.309 70.8486 109.702C69.4986 111.879 68.3342 112.967 67.3555 112.967C67.0855 112.967 66.8408 112.883 66.6214 112.714C66.1151 112.36 65.862 111.752 65.862 110.891C65.862 109.238 66.5792 107.559 68.0136 105.854C68.8236 104.909 69.8192 104.293 71.0005 104.006C71.3211 103.922 71.6248 103.88 71.9117 103.88C72.688 103.88 73.3461 104.15 73.8861 104.69C74.0548 104.875 74.1055 105.053 74.038 105.221C73.9705 105.39 73.827 105.458 73.6076 105.424C73.422 104.816 73.017 104.513 72.3926 104.513C71.667 104.513 70.7726 105.086 69.7095 106.234C69.102 106.909 68.5367 107.702 68.0136 108.613C67.3555 109.71 67.0264 110.588 67.0264 111.246C67.0264 111.904 67.2373 112.233 67.6592 112.233C68.6717 112.233 69.9964 110.68 71.6333 107.575C71.9539 106.951 72.4535 106.065 72.612 105.831C73.1267 105.069 73.0691 104.918 73.3739 104.69C73.7548 104.84 73.1094 104.083 73.3739 104.28C73.6608 104.331 74.6865 105.102 74.8215 105.069Z" fill="black"/>
<path d="M103.279 95.6972C99.9626 94.2496 99.3811 94.0919 97.3054 94.0919C95.2298 94.0919 93.4917 94.6825 92.0911 95.8638C90.7579 96.9944 90.0914 98.2094 90.0914 99.5088C90.0914 100.184 90.3361 100.673 90.8254 100.977C91.4836 101.348 92.1079 101.534 92.6986 101.534C92.9179 101.534 93.1373 101.508 93.3567 101.458C94.1329 101.272 95.012 100.878 95.2406 100.421C95.4691 100.116 95.3929 99.583 95.2406 99.0025C94.9731 98.4692 95.2406 97.7544 95.7739 97.7544C96.3072 97.6782 96.8406 98.2115 96.622 99.0025C96.622 99.1038 96.5967 99.2219 96.5461 99.3569C96.1917 100.555 95.3648 101.373 94.0654 101.812C93.5086 101.998 92.9348 102.091 92.3442 102.091C91.7536 102.091 91.1714 101.913 90.5976 101.559C89.5176 100.952 88.9776 100.023 88.9776 98.7747C88.9776 97.2728 89.6695 95.906 91.0532 94.6741C92.437 93.4422 93.9979 92.5734 95.9892 92.5734C97.3643 92.5734 98.0999 92.5416 99.1532 92.8263C101.651 93.5013 104.001 95.2401 106.089 95.6972C107.379 95.8497 107.983 95.857 108.798 95.6972C108.798 95.6972 110.973 95.5502 112.154 94.2496C113.449 93.2591 114.058 91.6591 114.058 91.6591C115.262 88.9137 115.143 88.5353 115.82 88.6877C116.496 88.8401 116.427 90.214 115.288 92.7258C114.829 93.7362 113.228 95.6972 111.468 96.4591C109.679 97.2335 106.089 96.9522 106.089 96.9522C106.089 96.9522 104.275 99.6606 103.279 102.091C102.959 102.901 102.909 102.909 102.858 103.027C103.837 103.162 105.791 104.453 106.089 105.069C107.049 107.05 108.24 107.583 108.24 107.583C108.572 108.04 110.468 107.488 110.468 107.488C110.162 108.52 107.14 108.621 105.532 106.269C104.49 104.745 102.966 103.954 102.477 103.886C101.431 106.755 100.326 109.263 99.2798 110.646C98.841 111.22 98.2926 111.819 97.6345 112.443C96.9764 113.085 96.276 113.599 95.5336 113.988C93.8629 114.899 91.9982 115.354 89.9395 115.354C87.8807 115.354 86.1342 114.899 84.6998 113.988C82.5229 112.638 81.1453 110.588 81.1453 108.04C81.1453 107.179 81.3245 106.288 81.7548 105.305C81.9574 104.664 82.4386 104.175 82.9786 103.685C83.5354 103.196 83.9995 102.901 84.3707 102.799C84.742 102.681 84.9107 102.656 84.877 102.723C84.8601 102.791 85.4339 103.297 84.877 103.685C83.7801 104.478 82.7193 105.2 82.5168 106.364C82.4324 106.786 82.3204 107.331 82.3204 107.888C82.3204 108.445 82.2636 108.906 82.5168 109.564C83.2086 111.353 84.4467 112.739 86.6236 113.583C87.6529 113.971 88.7582 114.165 89.9395 114.165C91.1207 114.165 92.2935 113.928 93.4579 113.456C94.6223 112.983 95.7023 112.275 96.6979 111.33C98.6386 109.49 100.45 106.805 101.715 103.886C101.182 103.621 99.9626 103.962 99.9626 103.962C99.9626 103.962 98.6676 103.926 95.9892 105.533C95.8373 105.719 95.7107 105.769 95.6095 105.685C95.5251 105.584 95.5167 105.457 95.5842 105.305C96.1533 104.516 96.3926 104.24 97.0676 103.886C97.7426 103.532 98.512 103.175 99.1532 103.027C99.9626 102.84 101.118 102.688 102.249 102.84C102.772 101.558 104.14 98.4089 104.306 97.6522C104.568 96.4591 104.306 96.1454 103.279 95.6972Z" fill="black"/>
<path d="M110.064 108.031C110.047 108.099 109.971 108.335 109.836 108.74C109.701 109.128 109.583 109.508 109.482 109.879C109.397 110.233 109.355 110.596 109.355 110.967C109.355 111.322 109.44 111.659 109.608 111.98C109.777 112.284 110.047 112.435 110.418 112.435C111.026 112.435 111.616 112.03 112.19 111.22C112.764 110.394 113.371 109.347 114.013 108.082C114.148 107.845 114.274 107.753 114.392 107.803C114.477 107.871 114.494 107.964 114.443 108.082C114.392 108.183 114.283 108.419 114.114 108.79C113.962 109.145 113.844 109.398 113.76 109.55C113.692 109.685 113.557 109.938 113.355 110.309C113.169 110.664 113 110.934 112.848 111.119C112.713 111.288 112.519 111.516 112.266 111.803C112.03 112.073 111.802 112.275 111.583 112.41C110.992 112.781 110.435 112.967 109.912 112.967C109.389 112.967 108.984 112.857 108.697 112.638C108.41 112.402 108.233 112.157 108.166 111.904C108.115 111.634 108.09 111.398 108.09 111.195C108.09 110.993 108.098 110.731 108.115 110.41C108.166 109.87 108.267 109.347 108.419 108.841C108.587 108.335 108.68 108.048 108.697 107.98C109.085 106.58 109.634 105.053 110.342 103.399C111.068 101.745 111.676 100.505 112.165 99.678C112.671 98.8342 113.068 98.2605 113.355 97.9567C113.928 97.3492 114.494 97.0455 115.051 97.0455C115.439 97.0455 115.7 97.3239 115.835 97.8808C115.852 97.982 115.861 98.1086 115.861 98.2605C115.861 98.8342 115.658 99.5599 115.253 100.437C113.802 103.66 112.072 106.192 110.064 108.031ZM110.266 107.221C111.127 106.344 111.979 105.238 112.823 103.905C113.667 102.572 114.283 101.441 114.671 100.513C115.076 99.5683 115.278 98.927 115.278 98.5895C115.278 98.252 115.219 98.0833 115.101 98.0833C114.932 98.0833 114.612 98.4208 114.139 99.0958C113.667 99.7539 113.026 100.952 112.216 102.69C111.422 104.411 110.773 105.922 110.266 107.221Z" fill="black"/>
<path d="M118.452 104.311C119.684 104.311 120.3 105.087 120.3 106.64C120.3 107.349 120.114 108.108 119.743 108.918C119.271 110.015 118.562 111.01 117.617 111.905C117.836 112.327 118.233 112.538 118.807 112.538C119.262 112.538 120.072 112.107 120.477 111.652C120.984 111.129 121.231 110.866 121.45 110.478C121.907 109.869 122.035 109.445 122.136 109.259C122.237 109.074 122.809 107.741 122.809 107.741C122.978 107.724 122.889 107.829 122.889 107.964C122.889 108.015 122.764 108.344 122.73 108.412L122.428 109.036C122.327 109.272 122.478 108.935 122.428 109.036C122.377 109.137 122.506 108.913 122.371 109.183C122.253 109.436 121.844 110.285 121.743 110.437C121.659 110.589 121.532 110.791 121.363 111.044C121.211 111.297 121.068 111.5 120.933 111.652C120.815 111.804 120.663 111.972 120.477 112.158C120.292 112.344 120.114 112.487 119.946 112.588C119.524 112.841 119.127 112.968 118.756 112.968C118.064 112.968 117.524 112.749 117.136 112.31C116.36 112.884 115.643 113.17 114.984 113.17C113.753 113.17 113.137 112.394 113.137 110.842C113.137 110.133 113.322 109.374 113.694 108.564C114.2 107.382 114.909 106.378 115.82 105.551C116.748 104.725 117.625 104.311 118.452 104.311ZM118.731 105.096C118.275 105.096 117.735 105.4 117.111 106.007C116.486 106.615 115.929 107.441 115.44 108.488C114.849 109.703 114.554 110.698 114.554 111.475C114.554 112.251 114.849 112.639 115.44 112.639C115.862 112.639 116.334 112.411 116.858 111.955C116.588 111.567 116.453 111.154 116.453 110.715C116.486 109.99 116.782 109.627 117.339 109.627C117.558 109.627 117.735 109.703 117.87 109.855C118.022 110.006 118.098 110.15 118.098 110.285C118.098 110.403 118.081 110.53 118.047 110.665C118.334 110.243 118.663 109.644 119.034 108.867C119.456 108.007 119.667 107.163 119.667 106.336C119.667 105.509 119.355 105.096 118.731 105.096Z" fill="black"/>
<path d="M135.196 104.562C135.229 104.812 135.196 106.314 133.52 107.879C134.007 108.567 134.742 108.701 135.393 108.461C134.546 108.765 134.166 108.816 133.236 108.385C132.139 110.41 130.125 113.018 128.826 113.018C128.218 113.018 127.805 112.866 127.585 112.562C127.317 112.231 127.239 111.955 127.205 111.701C127.189 111.448 127.18 111.229 127.18 111.043C127.18 110.588 127.256 110.09 127.408 109.55C126.159 111.828 125.037 112.967 124.041 112.967C123.67 112.967 123.333 112.866 123.029 112.663C122.725 112.444 122.589 112.236 122.396 111.575C122.29 111.212 122.288 111.24 122.212 110.715C122.212 110.715 122.106 109.788 122.428 109.036C122.158 109.036 122.018 109.529 122.136 109.259L122.809 107.741C123.494 105.988 124.498 104.612 124.802 104.462C125.146 104.293 125.476 104.26 125.965 104.26H127.509C126.86 104.462 126.413 104.514 125.789 105.78C124.951 106.95 124.494 108.046 124.041 109.417C123.808 110.126 123.656 111.111 123.656 111.499C123.656 111.87 123.766 112.067 123.884 112.236C124.019 112.388 124.244 112.435 124.446 112.435C124.649 112.435 124.894 112.3 125.181 112.03C125.467 111.744 125.729 111.44 125.965 111.119C126.201 110.799 126.438 110.436 126.674 110.031C126.927 109.626 127.155 109.246 127.357 108.892C127.56 108.52 127.779 108.099 128.015 107.626C128.252 107.137 128.437 106.757 128.572 106.487C129.062 105.508 129.332 104.943 129.382 104.791C129.534 104.437 129.855 104.26 130.344 104.26H131.888C131.855 104.293 131.762 104.361 131.61 104.462C131.272 104.681 131.028 104.926 130.876 105.196C130.116 106.462 129.585 107.483 129.281 108.259C128.606 109.98 128.269 111.085 128.269 111.575C128.269 112.182 128.496 112.495 128.952 112.511C128.986 112.511 129.028 112.511 129.079 112.511C130.294 112.511 132.017 109.742 132.673 108.107C132.437 107.601 132.319 107.137 132.319 106.715C132.319 106.293 132.369 105.913 132.471 105.576C132.757 104.597 133.213 103.998 133.837 103.779C133.955 103.728 133.764 103.737 134.166 103.703C134.569 103.669 134.707 103.747 134.891 103.952C135.119 104.175 135.163 104.311 135.196 104.562Z" fill="black"/>
<path d="M135.641 109.018C135.405 109.592 135.287 110.233 135.287 110.942C135.287 111.415 135.388 111.794 135.591 112.081C135.81 112.351 136.114 112.486 136.502 112.486C138.038 112.486 139.43 111.043 140.678 108.158C140.797 107.888 140.94 107.77 141.109 107.803C141.176 107.82 141.21 107.862 141.21 107.93C141.21 107.997 141.016 108.445 140.628 109.271C140.257 110.081 139.877 110.74 139.489 111.246C138.628 112.427 137.565 113.018 136.299 113.018C135.624 113.018 135.051 112.798 134.578 112.36C134.106 111.921 133.869 111.322 133.869 110.562C133.869 109.803 134.047 109.001 134.401 108.158C134.772 107.297 135.27 106.504 135.894 105.778C136.519 105.036 137.236 104.496 138.046 104.158C138.434 103.99 138.805 103.905 139.16 103.905C139.514 103.905 139.843 104.006 140.147 104.209C140.434 104.445 140.577 104.707 140.577 104.994C140.577 106.006 139.97 106.976 138.755 107.905C138.383 108.191 137.86 108.453 137.185 108.689C136.51 108.909 135.996 109.018 135.641 109.018ZM139.894 104.968C139.894 104.631 139.759 104.462 139.489 104.462C139.016 104.462 138.299 105.044 137.337 106.209C136.763 106.917 136.257 107.71 135.818 108.588C136.105 108.588 136.519 108.487 137.059 108.284C137.616 108.082 138.097 107.812 138.502 107.474C139.43 106.681 139.894 105.846 139.894 104.968Z" fill="black"/>
<path d="M144.174 102.766C144.174 103.525 143.693 104.243 142.731 104.918C143.069 104.935 143.516 104.943 144.073 104.943C144.646 104.943 145.364 104.901 146.224 104.816C146.258 104.867 146.275 105.002 146.275 105.221C146.275 105.441 146.174 105.77 145.971 106.209C145.769 106.63 145.583 107.002 145.414 107.322C145.262 107.626 145.111 107.921 144.959 108.208C144.824 108.478 144.663 108.816 144.478 109.221C144.309 109.626 144.166 109.997 144.047 110.335C143.626 111.617 143.693 112.258 144.25 112.258C144.959 112.258 146.005 110.849 147.389 108.031C147.507 107.812 147.6 107.727 147.667 107.778C147.751 107.829 147.794 107.896 147.794 107.98C147.794 108.048 147.684 108.31 147.465 108.765C147.245 109.204 147.009 109.66 146.756 110.132C146.503 110.605 146.106 111.153 145.566 111.777C144.925 112.554 144.309 112.942 143.718 112.942C143.06 112.942 142.605 112.545 142.351 111.752C142.301 111.6 142.276 111.372 142.276 111.069C142.276 110.765 142.368 110.36 142.554 109.854C142.756 109.347 143.069 108.731 143.491 108.006C143.912 107.28 144.149 106.858 144.199 106.74C144.25 106.605 144.275 106.479 144.275 106.361C144.275 105.837 143.6 105.559 142.25 105.525L141.946 106.335C140.883 109.12 139.862 110.984 138.884 111.929C138.715 112.081 138.631 112.03 138.631 111.777C138.631 111.727 138.647 111.668 138.681 111.6C139.626 110.351 140.445 108.875 141.136 107.17C141.828 105.466 142.309 103.846 142.579 102.31C142.681 101.787 142.917 101.526 143.288 101.526C143.659 101.526 143.929 101.762 144.098 102.235C144.149 102.386 144.174 102.564 144.174 102.766Z" fill="black"/>
<line x1="70.5569" y1="116.725" x2="81.0691" y2="116.725" stroke="black" stroke-width="1.52593" stroke-linecap="round" stroke-linejoin="round"/>
<defs>
<radialGradient id="paint0_radial_1296_7157" cx="0" cy="0" r="1" gradientUnits="userSpaceOnUse" gradientTransform="translate(84.6417 111.086) rotate(-89.7672) scale(109.408)">
<stop offset="0.302559" stop-color="white"/>
<stop offset="1" stop-color="white" stop-opacity="0"/>
</radialGradient>
<linearGradient id="paint1_linear_1296_7157" x1="179.234" y1="51.4562" x2="9.08612" y2="105.604" gradientUnits="userSpaceOnUse">
<stop stop-color="white" stop-opacity="0.74"/>
<stop offset="0.994792" stop-color="white" stop-opacity="0"/>
</linearGradient>
</defs>
</svg>
