<svg width="21" height="21" viewBox="0 0 21 21" fill="none" xmlns="http://www.w3.org/2000/svg">
<mask id="path-1-outside-1_408_488" maskUnits="userSpaceOnUse" x="-0.700012" y="-0.700195" width="22" height="22" fill="black">
<rect fill="white" x="-0.700012" y="-0.700195" width="22" height="22"/>
<path d="M15.9473 12.0297C16.2375 12.0297 16.5202 12.0855 16.7955 12.1971C17.0708 12.3087 17.3126 12.4687 17.521 12.677C17.6772 12.8333 17.8521 12.997 18.0455 13.1681C18.239 13.3392 18.4436 13.5215 18.6594 13.715C18.8751 13.9084 19.076 14.1093 19.262 14.3177C19.4481 14.526 19.6229 14.738 19.7866 14.9538C19.9503 15.1696 20.0731 15.4003 20.1549 15.6458C20.2367 15.8913 20.2851 16.1369 20.3 16.3824C20.3 16.6726 20.2442 16.9553 20.1326 17.2306C20.021 17.5059 19.861 17.7477 19.6527 17.9561C19.2732 18.3355 18.9309 18.6703 18.6259 18.9605C18.3208 19.2507 18.0046 19.4962 17.6772 19.6971C17.3498 19.898 16.9815 20.0468 16.5723 20.1436C16.1631 20.2403 15.6832 20.2924 15.1326 20.2998C14.3216 20.2998 13.4882 20.1733 12.6326 19.9203C11.7769 19.6674 10.925 19.3177 10.0768 18.8712C9.22856 18.4248 8.39895 17.8928 7.58793 17.2753C6.77692 16.6577 6.01055 15.9843 5.28883 15.2552C4.5671 14.526 3.89746 13.7559 3.2799 12.9449C2.66234 12.1339 2.13779 11.308 1.70624 10.4672C1.27469 9.62644 0.932428 8.78195 0.679452 7.93373C0.426476 7.08552 0.299988 6.26707 0.299988 5.47838C0.299988 4.9129 0.348351 4.42927 0.445077 4.02748C0.541803 3.6257 0.690613 3.26111 0.891506 2.93373C1.0924 2.60635 1.33793 2.29013 1.62811 1.98507C1.91829 1.68001 2.25683 1.33403 2.64374 0.947126C2.85207 0.738793 3.09389 0.578823 3.36918 0.467215C3.64448 0.355608 3.92722 0.299805 4.2174 0.299805C4.58942 0.299805 4.94657 0.400251 5.28883 0.601144C5.63109 0.802037 5.96219 1.04757 6.28213 1.33775C6.60207 1.62793 6.89597 1.93299 7.16383 2.25293C7.43168 2.57287 7.68466 2.84817 7.92276 3.07882C8.13109 3.28716 8.29106 3.52897 8.40267 3.80427C8.51427 4.07957 8.57008 4.3623 8.57008 4.65248C8.57008 4.94266 8.52171 5.20308 8.42499 5.43373C8.32826 5.66439 8.20921 5.869 8.06785 6.04757C7.92648 6.22614 7.77023 6.39355 7.5991 6.5498C7.42796 6.70605 7.27171 6.85486 7.13034 6.99623C6.98898 7.1376 6.86621 7.27525 6.76204 7.40918C6.65788 7.54311 6.60951 7.69192 6.61695 7.85561C6.61695 7.94489 6.68392 8.08626 6.81784 8.27972C6.95177 8.47317 7.13779 8.70382 7.37588 8.97168C7.61398 9.23954 7.87811 9.526 8.16829 9.83105C8.45847 10.1361 8.77097 10.4523 9.10579 10.7797C9.44061 11.1071 9.76427 11.4233 10.0768 11.7284C10.3893 12.0334 10.6906 12.3236 10.9808 12.5989C11.271 12.8742 11.5165 13.1086 11.7174 13.302C11.9183 13.4955 12.0745 13.6443 12.1861 13.7485C12.3424 13.9047 12.5284 13.9828 12.7442 13.9828C12.9004 13.9828 13.0455 13.9345 13.1795 13.8378C13.3134 13.741 13.451 13.622 13.5924 13.4806C13.7338 13.3392 13.8789 13.183 14.0277 13.0119C14.1765 12.8407 14.3476 12.6845 14.5411 12.5431C14.7345 12.4017 14.9391 12.279 15.1549 12.1748C15.3707 12.0706 15.6348 12.0223 15.9473 12.0297ZM15.1326 18.8712C15.5864 18.8712 15.9659 18.8303 16.271 18.7485C16.576 18.6666 16.855 18.5401 17.108 18.369C17.361 18.1979 17.5991 17.997 17.8223 17.7663C18.0455 17.5357 18.3171 17.2641 18.637 16.9516C18.7933 16.7953 18.8714 16.6093 18.8714 16.3936C18.8714 16.2968 18.8119 16.1592 18.6928 15.9806C18.5738 15.802 18.425 15.6011 18.2464 15.3779C18.0678 15.1547 17.8632 14.9315 17.6326 14.7083C17.4019 14.4851 17.1787 14.2805 16.9629 14.0944C16.7472 13.9084 16.55 13.7559 16.3714 13.6369C16.1928 13.5178 16.0515 13.4583 15.9473 13.4583C15.7911 13.4583 15.6423 13.5066 15.5009 13.6034C15.3595 13.7001 15.2219 13.8191 15.0879 13.9605C14.954 14.1019 14.8089 14.2581 14.6527 14.4293C14.4964 14.6004 14.3253 14.7566 14.1393 14.898C13.9533 15.0394 13.7486 15.1622 13.5254 15.2663C13.3022 15.3705 13.0418 15.4189 12.7442 15.4114C12.4466 15.4114 12.1638 15.3556 11.896 15.244C11.6281 15.1324 11.3863 14.9687 11.1705 14.7529L5.84686 9.42927C5.63853 9.22094 5.47856 8.98284 5.36695 8.71498C5.25534 8.44713 5.19582 8.16067 5.18838 7.85561C5.18838 7.56543 5.23674 7.30873 5.33347 7.08552C5.4302 6.8623 5.54924 6.65397 5.69061 6.46052C5.83198 6.26707 5.98823 6.09966 6.15936 5.95829C6.33049 5.81692 6.48674 5.66811 6.62811 5.51186C6.76948 5.35561 6.89225 5.21796 6.99642 5.09891C7.10058 4.97986 7.14895 4.83105 7.14151 4.65248C7.14151 4.55576 7.08198 4.41811 6.96293 4.23954C6.84389 4.06097 6.69508 3.86379 6.51651 3.64802C6.33793 3.43225 6.13332 3.20903 5.90267 2.97838C5.67201 2.74772 5.4488 2.54311 5.23302 2.36454C5.01725 2.18597 4.81636 2.03344 4.63034 1.90695C4.44433 1.78046 4.30668 1.72094 4.2174 1.72838C3.99418 1.72838 3.80445 1.8065 3.6482 1.96275C3.34314 2.26781 3.07157 2.53567 2.83347 2.76632C2.59537 2.99698 2.39448 3.23507 2.23079 3.48061C2.0671 3.72614 1.94433 4.00516 1.86249 4.31766C1.78064 4.63016 1.736 5.00591 1.72856 5.44489C1.72856 6.15918 1.84389 6.89579 2.07454 7.65472C2.3052 8.41364 2.62514 9.18001 3.03436 9.95382C3.44359 10.7276 3.93466 11.4791 4.50758 12.2083C5.08049 12.9375 5.69433 13.6331 6.34909 14.2953C7.00386 14.9575 7.70326 15.5677 8.44731 16.1257C9.19136 16.6837 9.94285 17.1674 10.7018 17.5766C11.4607 17.9858 12.2159 18.302 12.9674 18.5253C13.7189 18.7485 14.4406 18.8638 15.1326 18.8712Z"/>
</mask>
<path d="M15.9473 12.0297C16.2375 12.0297 16.5202 12.0855 16.7955 12.1971C17.0708 12.3087 17.3126 12.4687 17.521 12.677C17.6772 12.8333 17.8521 12.997 18.0455 13.1681C18.239 13.3392 18.4436 13.5215 18.6594 13.715C18.8751 13.9084 19.076 14.1093 19.262 14.3177C19.4481 14.526 19.6229 14.738 19.7866 14.9538C19.9503 15.1696 20.0731 15.4003 20.1549 15.6458C20.2367 15.8913 20.2851 16.1369 20.3 16.3824C20.3 16.6726 20.2442 16.9553 20.1326 17.2306C20.021 17.5059 19.861 17.7477 19.6527 17.9561C19.2732 18.3355 18.9309 18.6703 18.6259 18.9605C18.3208 19.2507 18.0046 19.4962 17.6772 19.6971C17.3498 19.898 16.9815 20.0468 16.5723 20.1436C16.1631 20.2403 15.6832 20.2924 15.1326 20.2998C14.3216 20.2998 13.4882 20.1733 12.6326 19.9203C11.7769 19.6674 10.925 19.3177 10.0768 18.8712C9.22856 18.4248 8.39895 17.8928 7.58793 17.2753C6.77692 16.6577 6.01055 15.9843 5.28883 15.2552C4.5671 14.526 3.89746 13.7559 3.2799 12.9449C2.66234 12.1339 2.13779 11.308 1.70624 10.4672C1.27469 9.62644 0.932428 8.78195 0.679452 7.93373C0.426476 7.08552 0.299988 6.26707 0.299988 5.47838C0.299988 4.9129 0.348351 4.42927 0.445077 4.02748C0.541803 3.6257 0.690613 3.26111 0.891506 2.93373C1.0924 2.60635 1.33793 2.29013 1.62811 1.98507C1.91829 1.68001 2.25683 1.33403 2.64374 0.947126C2.85207 0.738793 3.09389 0.578823 3.36918 0.467215C3.64448 0.355608 3.92722 0.299805 4.2174 0.299805C4.58942 0.299805 4.94657 0.400251 5.28883 0.601144C5.63109 0.802037 5.96219 1.04757 6.28213 1.33775C6.60207 1.62793 6.89597 1.93299 7.16383 2.25293C7.43168 2.57287 7.68466 2.84817 7.92276 3.07882C8.13109 3.28716 8.29106 3.52897 8.40267 3.80427C8.51427 4.07957 8.57008 4.3623 8.57008 4.65248C8.57008 4.94266 8.52171 5.20308 8.42499 5.43373C8.32826 5.66439 8.20921 5.869 8.06785 6.04757C7.92648 6.22614 7.77023 6.39355 7.5991 6.5498C7.42796 6.70605 7.27171 6.85486 7.13034 6.99623C6.98898 7.1376 6.86621 7.27525 6.76204 7.40918C6.65788 7.54311 6.60951 7.69192 6.61695 7.85561C6.61695 7.94489 6.68392 8.08626 6.81784 8.27972C6.95177 8.47317 7.13779 8.70382 7.37588 8.97168C7.61398 9.23954 7.87811 9.526 8.16829 9.83105C8.45847 10.1361 8.77097 10.4523 9.10579 10.7797C9.44061 11.1071 9.76427 11.4233 10.0768 11.7284C10.3893 12.0334 10.6906 12.3236 10.9808 12.5989C11.271 12.8742 11.5165 13.1086 11.7174 13.302C11.9183 13.4955 12.0745 13.6443 12.1861 13.7485C12.3424 13.9047 12.5284 13.9828 12.7442 13.9828C12.9004 13.9828 13.0455 13.9345 13.1795 13.8378C13.3134 13.741 13.451 13.622 13.5924 13.4806C13.7338 13.3392 13.8789 13.183 14.0277 13.0119C14.1765 12.8407 14.3476 12.6845 14.5411 12.5431C14.7345 12.4017 14.9391 12.279 15.1549 12.1748C15.3707 12.0706 15.6348 12.0223 15.9473 12.0297ZM15.1326 18.8712C15.5864 18.8712 15.9659 18.8303 16.271 18.7485C16.576 18.6666 16.855 18.5401 17.108 18.369C17.361 18.1979 17.5991 17.997 17.8223 17.7663C18.0455 17.5357 18.3171 17.2641 18.637 16.9516C18.7933 16.7953 18.8714 16.6093 18.8714 16.3936C18.8714 16.2968 18.8119 16.1592 18.6928 15.9806C18.5738 15.802 18.425 15.6011 18.2464 15.3779C18.0678 15.1547 17.8632 14.9315 17.6326 14.7083C17.4019 14.4851 17.1787 14.2805 16.9629 14.0944C16.7472 13.9084 16.55 13.7559 16.3714 13.6369C16.1928 13.5178 16.0515 13.4583 15.9473 13.4583C15.7911 13.4583 15.6423 13.5066 15.5009 13.6034C15.3595 13.7001 15.2219 13.8191 15.0879 13.9605C14.954 14.1019 14.8089 14.2581 14.6527 14.4293C14.4964 14.6004 14.3253 14.7566 14.1393 14.898C13.9533 15.0394 13.7486 15.1622 13.5254 15.2663C13.3022 15.3705 13.0418 15.4189 12.7442 15.4114C12.4466 15.4114 12.1638 15.3556 11.896 15.244C11.6281 15.1324 11.3863 14.9687 11.1705 14.7529L5.84686 9.42927C5.63853 9.22094 5.47856 8.98284 5.36695 8.71498C5.25534 8.44713 5.19582 8.16067 5.18838 7.85561C5.18838 7.56543 5.23674 7.30873 5.33347 7.08552C5.4302 6.8623 5.54924 6.65397 5.69061 6.46052C5.83198 6.26707 5.98823 6.09966 6.15936 5.95829C6.33049 5.81692 6.48674 5.66811 6.62811 5.51186C6.76948 5.35561 6.89225 5.21796 6.99642 5.09891C7.10058 4.97986 7.14895 4.83105 7.14151 4.65248C7.14151 4.55576 7.08198 4.41811 6.96293 4.23954C6.84389 4.06097 6.69508 3.86379 6.51651 3.64802C6.33793 3.43225 6.13332 3.20903 5.90267 2.97838C5.67201 2.74772 5.4488 2.54311 5.23302 2.36454C5.01725 2.18597 4.81636 2.03344 4.63034 1.90695C4.44433 1.78046 4.30668 1.72094 4.2174 1.72838C3.99418 1.72838 3.80445 1.8065 3.6482 1.96275C3.34314 2.26781 3.07157 2.53567 2.83347 2.76632C2.59537 2.99698 2.39448 3.23507 2.23079 3.48061C2.0671 3.72614 1.94433 4.00516 1.86249 4.31766C1.78064 4.63016 1.736 5.00591 1.72856 5.44489C1.72856 6.15918 1.84389 6.89579 2.07454 7.65472C2.3052 8.41364 2.62514 9.18001 3.03436 9.95382C3.44359 10.7276 3.93466 11.4791 4.50758 12.2083C5.08049 12.9375 5.69433 13.6331 6.34909 14.2953C7.00386 14.9575 7.70326 15.5677 8.44731 16.1257C9.19136 16.6837 9.94285 17.1674 10.7018 17.5766C11.4607 17.9858 12.2159 18.302 12.9674 18.5253C13.7189 18.7485 14.4406 18.8638 15.1326 18.8712Z" fill="white"/>
<path d="M15.9473 12.0297C16.2375 12.0297 16.5202 12.0855 16.7955 12.1971C17.0708 12.3087 17.3126 12.4687 17.521 12.677C17.6772 12.8333 17.8521 12.997 18.0455 13.1681C18.239 13.3392 18.4436 13.5215 18.6594 13.715C18.8751 13.9084 19.076 14.1093 19.262 14.3177C19.4481 14.526 19.6229 14.738 19.7866 14.9538C19.9503 15.1696 20.0731 15.4003 20.1549 15.6458C20.2367 15.8913 20.2851 16.1369 20.3 16.3824C20.3 16.6726 20.2442 16.9553 20.1326 17.2306C20.021 17.5059 19.861 17.7477 19.6527 17.9561C19.2732 18.3355 18.9309 18.6703 18.6259 18.9605C18.3208 19.2507 18.0046 19.4962 17.6772 19.6971C17.3498 19.898 16.9815 20.0468 16.5723 20.1436C16.1631 20.2403 15.6832 20.2924 15.1326 20.2998C14.3216 20.2998 13.4882 20.1733 12.6326 19.9203C11.7769 19.6674 10.925 19.3177 10.0768 18.8712C9.22856 18.4248 8.39895 17.8928 7.58793 17.2753C6.77692 16.6577 6.01055 15.9843 5.28883 15.2552C4.5671 14.526 3.89746 13.7559 3.2799 12.9449C2.66234 12.1339 2.13779 11.308 1.70624 10.4672C1.27469 9.62644 0.932428 8.78195 0.679452 7.93373C0.426476 7.08552 0.299988 6.26707 0.299988 5.47838C0.299988 4.9129 0.348351 4.42927 0.445077 4.02748C0.541803 3.6257 0.690613 3.26111 0.891506 2.93373C1.0924 2.60635 1.33793 2.29013 1.62811 1.98507C1.91829 1.68001 2.25683 1.33403 2.64374 0.947126C2.85207 0.738793 3.09389 0.578823 3.36918 0.467215C3.64448 0.355608 3.92722 0.299805 4.2174 0.299805C4.58942 0.299805 4.94657 0.400251 5.28883 0.601144C5.63109 0.802037 5.96219 1.04757 6.28213 1.33775C6.60207 1.62793 6.89597 1.93299 7.16383 2.25293C7.43168 2.57287 7.68466 2.84817 7.92276 3.07882C8.13109 3.28716 8.29106 3.52897 8.40267 3.80427C8.51427 4.07957 8.57008 4.3623 8.57008 4.65248C8.57008 4.94266 8.52171 5.20308 8.42499 5.43373C8.32826 5.66439 8.20921 5.869 8.06785 6.04757C7.92648 6.22614 7.77023 6.39355 7.5991 6.5498C7.42796 6.70605 7.27171 6.85486 7.13034 6.99623C6.98898 7.1376 6.86621 7.27525 6.76204 7.40918C6.65788 7.54311 6.60951 7.69192 6.61695 7.85561C6.61695 7.94489 6.68392 8.08626 6.81784 8.27972C6.95177 8.47317 7.13779 8.70382 7.37588 8.97168C7.61398 9.23954 7.87811 9.526 8.16829 9.83105C8.45847 10.1361 8.77097 10.4523 9.10579 10.7797C9.44061 11.1071 9.76427 11.4233 10.0768 11.7284C10.3893 12.0334 10.6906 12.3236 10.9808 12.5989C11.271 12.8742 11.5165 13.1086 11.7174 13.302C11.9183 13.4955 12.0745 13.6443 12.1861 13.7485C12.3424 13.9047 12.5284 13.9828 12.7442 13.9828C12.9004 13.9828 13.0455 13.9345 13.1795 13.8378C13.3134 13.741 13.451 13.622 13.5924 13.4806C13.7338 13.3392 13.8789 13.183 14.0277 13.0119C14.1765 12.8407 14.3476 12.6845 14.5411 12.5431C14.7345 12.4017 14.9391 12.279 15.1549 12.1748C15.3707 12.0706 15.6348 12.0223 15.9473 12.0297ZM15.1326 18.8712C15.5864 18.8712 15.9659 18.8303 16.271 18.7485C16.576 18.6666 16.855 18.5401 17.108 18.369C17.361 18.1979 17.5991 17.997 17.8223 17.7663C18.0455 17.5357 18.3171 17.2641 18.637 16.9516C18.7933 16.7953 18.8714 16.6093 18.8714 16.3936C18.8714 16.2968 18.8119 16.1592 18.6928 15.9806C18.5738 15.802 18.425 15.6011 18.2464 15.3779C18.0678 15.1547 17.8632 14.9315 17.6326 14.7083C17.4019 14.4851 17.1787 14.2805 16.9629 14.0944C16.7472 13.9084 16.55 13.7559 16.3714 13.6369C16.1928 13.5178 16.0515 13.4583 15.9473 13.4583C15.7911 13.4583 15.6423 13.5066 15.5009 13.6034C15.3595 13.7001 15.2219 13.8191 15.0879 13.9605C14.954 14.1019 14.8089 14.2581 14.6527 14.4293C14.4964 14.6004 14.3253 14.7566 14.1393 14.898C13.9533 15.0394 13.7486 15.1622 13.5254 15.2663C13.3022 15.3705 13.0418 15.4189 12.7442 15.4114C12.4466 15.4114 12.1638 15.3556 11.896 15.244C11.6281 15.1324 11.3863 14.9687 11.1705 14.7529L5.84686 9.42927C5.63853 9.22094 5.47856 8.98284 5.36695 8.71498C5.25534 8.44713 5.19582 8.16067 5.18838 7.85561C5.18838 7.56543 5.23674 7.30873 5.33347 7.08552C5.4302 6.8623 5.54924 6.65397 5.69061 6.46052C5.83198 6.26707 5.98823 6.09966 6.15936 5.95829C6.33049 5.81692 6.48674 5.66811 6.62811 5.51186C6.76948 5.35561 6.89225 5.21796 6.99642 5.09891C7.10058 4.97986 7.14895 4.83105 7.14151 4.65248C7.14151 4.55576 7.08198 4.41811 6.96293 4.23954C6.84389 4.06097 6.69508 3.86379 6.51651 3.64802C6.33793 3.43225 6.13332 3.20903 5.90267 2.97838C5.67201 2.74772 5.4488 2.54311 5.23302 2.36454C5.01725 2.18597 4.81636 2.03344 4.63034 1.90695C4.44433 1.78046 4.30668 1.72094 4.2174 1.72838C3.99418 1.72838 3.80445 1.8065 3.6482 1.96275C3.34314 2.26781 3.07157 2.53567 2.83347 2.76632C2.59537 2.99698 2.39448 3.23507 2.23079 3.48061C2.0671 3.72614 1.94433 4.00516 1.86249 4.31766C1.78064 4.63016 1.736 5.00591 1.72856 5.44489C1.72856 6.15918 1.84389 6.89579 2.07454 7.65472C2.3052 8.41364 2.62514 9.18001 3.03436 9.95382C3.44359 10.7276 3.93466 11.4791 4.50758 12.2083C5.08049 12.9375 5.69433 13.6331 6.34909 14.2953C7.00386 14.9575 7.70326 15.5677 8.44731 16.1257C9.19136 16.6837 9.94285 17.1674 10.7018 17.5766C11.4607 17.9858 12.2159 18.302 12.9674 18.5253C13.7189 18.7485 14.4406 18.8638 15.1326 18.8712Z" stroke="white" stroke-width="0.6" mask="url(#path-1-outside-1_408_488)"/>
</svg>
