<svg width="20" height="20" viewBox="0 0 20 20" fill="none" xmlns="http://www.w3.org/2000/svg">
<path fill-rule="evenodd" clip-rule="evenodd" d="M10.0009 0C7.28508 0 6.94424 0.011875 5.87756 0.0604167C4.81297 0.109167 4.08629 0.277708 3.45045 0.525C2.79274 0.780417 2.23481 1.12208 1.67898 1.67813C1.12272 2.23396 0.78105 2.79187 0.524797 3.44937C0.276878 4.08542 0.108126 4.81229 0.0602089 5.87646C0.0125001 6.94312 0 7.28417 0 10C0 12.7158 0.0120834 13.0556 0.0604173 14.1223C0.109376 15.1869 0.27792 15.9135 0.525005 16.5494C0.780633 17.2071 1.1223 17.765 1.67835 18.3208C2.23398 18.8771 2.7919 19.2196 3.4492 19.475C4.08546 19.7223 4.81234 19.8908 5.87673 19.9396C6.94341 19.9881 7.28403 20 9.99969 20C12.7158 20 13.0556 19.9881 14.1222 19.9396C15.1868 19.8908 15.9143 19.7223 16.5506 19.475C17.2081 19.2196 17.7652 18.8771 18.3208 18.3208C18.8771 17.765 19.2187 17.2071 19.475 16.5496C19.7208 15.9135 19.8896 15.1867 19.9396 14.1225C19.9875 13.0558 20 12.7158 20 10C20 7.28417 19.9875 6.94333 19.9396 5.87667C19.8896 4.81208 19.7208 4.08542 19.475 3.44958C19.2187 2.79187 18.8771 2.23396 18.3208 1.67813C17.7646 1.12187 17.2083 0.780208 16.55 0.525C15.9125 0.277708 15.1854 0.109167 14.1208 0.0604167C13.0541 0.011875 12.7145 0 9.99781 0H10.0009ZM9.10391 1.8023C9.2781 1.80203 9.46548 1.80212 9.6677 1.80221L10.001 1.8023C12.671 1.8023 12.9875 1.81189 14.0419 1.8598C15.0169 1.90439 15.5461 2.06731 15.8986 2.20418C16.3652 2.38543 16.698 2.6021 17.0478 2.9521C17.3978 3.3021 17.6144 3.63543 17.7961 4.1021C17.933 4.45418 18.0961 4.98335 18.1405 5.95835C18.1884 7.01252 18.1988 7.32919 18.1988 9.99794C18.1988 12.6667 18.1884 12.9834 18.1405 14.0375C18.0959 15.0125 17.933 15.5417 17.7961 15.8938C17.6148 16.3605 17.3978 16.6927 17.0478 17.0425C16.6978 17.3925 16.3655 17.6092 15.8986 17.7905C15.5465 17.928 15.0169 18.0905 14.0419 18.135C12.9877 18.183 12.671 18.1934 10.001 18.1934C7.33076 18.1934 7.0143 18.183 5.96012 18.135C4.9851 18.09 4.45593 17.9271 4.10322 17.7902C3.63654 17.609 3.30321 17.3923 2.9532 17.0423C2.6032 16.6923 2.38653 16.3598 2.20486 15.893C2.06798 15.5409 1.90486 15.0117 1.86048 14.0367C1.81256 12.9825 1.80298 12.6659 1.80298 9.99544C1.80298 7.32502 1.81256 7.01002 1.86048 5.95585C1.90506 4.98085 2.06798 4.45168 2.20486 4.09918C2.38611 3.63252 2.6032 3.29918 2.9532 2.94918C3.30321 2.59918 3.63654 2.38251 4.10322 2.20085C4.45572 2.06335 4.9851 1.90085 5.96012 1.85605C6.88263 1.81439 7.24013 1.80189 9.10391 1.7998V1.8023ZM14.1393 4.66192C14.1393 3.99921 14.6768 3.46233 15.3394 3.46233V3.46191C16.0019 3.46191 16.5394 3.99941 16.5394 4.66192C16.5394 5.32442 16.0019 5.86192 15.3394 5.86192C14.6768 5.86192 14.1393 5.32442 14.1393 4.66192ZM10.0007 4.86426C7.16468 4.86437 4.8654 7.16371 4.8654 9.99969C4.8654 12.8357 7.16479 15.1341 10.0009 15.1341C12.8369 15.1341 15.1355 12.8357 15.1355 9.99969C15.1355 7.16364 12.8367 4.86426 10.0007 4.86426ZM13.3346 9.99934C13.3346 8.1583 11.8421 6.66602 10.0012 6.66602C8.16018 6.66602 6.66787 8.1583 6.66787 9.99934C6.66787 11.8402 8.16018 13.3327 10.0012 13.3327C11.8421 13.3327 13.3346 11.8402 13.3346 9.99934Z" fill="white"/>
</svg>
